LisuNew-BoldItalic.ufo
<glyph name="dollar" format="2">
  <advance width="961"/>
  <unicode hex="0024"/>
  <outline>
    <contour>
      <point x="909" y="973" type="qcurve"/>
      <point x="909" y="928"/>
      <point x="893" y="881" type="qcurve"/>
      <point x="872" y="819"/>
      <point x="838" y="819" type="qcurve"/>
      <point x="805" y="819"/>
      <point x="672" y="844"/>
      <point x="637" y="844" type="qcurve"/>
      <point x="477" y="844"/>
      <point x="477" y="756" type="qcurve"/>
      <point x="477" y="709"/>
      <point x="559" y="666" type="qcurve"/>
      <point x="690" y="598"/>
      <point x="713" y="582" type="qcurve"/>
      <point x="795" y="516"/>
      <point x="795" y="414" type="qcurve"/>
      <point x="795" y="324"/>
      <point x="674" y="250" type="qcurve"/>
      <point x="565" y="182"/>
      <point x="471" y="188" type="qcurve"/>
      <point x="422" y="39"/>
      <point x="408" y="25" type="qcurve"/>
      <point x="377" y="-8"/>
      <point x="238" y="-8" type="qcurve"/>
      <point x="123" y="-8"/>
      <point x="123" y="29" type="qcurve"/>
      <point x="123" y="27"/>
      <point x="195" y="197" type="qcurve"/>
      <point x="49" y="229"/>
      <point x="49" y="246" type="qcurve"/>
      <point x="49" y="256"/>
      <point x="106" y="387"/>
      <point x="115" y="401" type="qcurve"/>
      <point x="317" y="367"/>
      <point x="369" y="367" type="qcurve"/>
      <point x="520" y="367"/>
      <point x="520" y="457" type="qcurve"/>
      <point x="520" y="508"/>
      <point x="346" y="594"/>
      <point x="262" y="635" type="qcurve"/>
      <point x="172" y="694"/>
      <point x="172" y="776" type="qcurve"/>
      <point x="172" y="895"/>
      <point x="205" y="930" type="qcurve"/>
      <point x="233" y="958"/>
      <point x="360" y="981" type="qcurve"/>
      <point x="424" y="993"/>
      <point x="455" y="1001" type="qcurve"/>
      <point x="475" y="1055"/>
      <point x="496" y="1106" type="qcurve"/>
      <point x="516" y="1137"/>
      <point x="594" y="1137" type="qcurve"/>
      <point x="633" y="1137"/>
      <point x="700" y="1128" type="qcurve"/>
      <point x="786" y="1118"/>
      <point x="786" y="1106" type="qcurve"/>
      <point x="786" y="1081"/>
      <point x="752" y="1016" type="qcurve"/>
      <point x="795" y="1008"/>
      <point x="838" y="999" type="qcurve"/>
      <point x="909" y="985"/>
    </contour>
  </outline>
</glyph>
<glyph name="percent" format="2">
  <advance width="1808"/>
  <unicode hex="0025"/>
  <outline>
    <contour>
      <point x="1739" y="467" type="qcurve"/>
      <point x="1739" y="279"/>
      <point x="1614" y="137" type="qcurve"/>
      <point x="1483" y="-10"/>
      <point x="1296" y="-10" type="qcurve"/>
      <point x="1182" y="-10"/>
      <point x="1010" y="162"/>
      <point x="1010" y="276" type="qcurve"/>
      <point x="1010" y="391"/>
      <point x="1055" y="473" type="qcurve"/>
      <point x="1110" y="573"/>
      <point x="1217" y="569" type="qcurve"/>
      <point x="1239" y="641"/>
      <point x="1323" y="678" type="qcurve"/>
      <point x="1391" y="709"/>
      <point x="1477" y="709" type="qcurve"/>
      <point x="1593" y="709"/>
      <point x="1739" y="582"/>
    </contour>
    <contour>
      <point x="1450" y="1028" type="line"/>
      <point x="1346" y="1061" type="line"/>
      <point x="1286" y="952"/>
      <point x="987" y="551"/>
      <point x="926" y="440" type="qcurve"/>
      <point x="870" y="340"/>
      <point x="696" y="16" type="qcurve"/>
      <point x="788" y="53" type="line"/>
      <point x="723" y="68" type="line"/>
      <point x="684" y="-12"/>
      <point x="670" y="-12" type="qcurve"/>
      <point x="637" y="-12"/>
      <point x="598" y="0" type="qcurve"/>
      <point x="549" y="16"/>
      <point x="549" y="41" type="qcurve"/>
      <point x="549" y="104"/>
      <point x="961" y="745" type="qcurve"/>
      <point x="1223" y="1153"/>
      <point x="1274" y="1153" type="qcurve"/>
      <point x="1292" y="1153"/>
      <point x="1364" y="1094"/>
      <point x="1364" y="1077" type="qcurve"/>
      <point x="1364" y="1061"/>
      <point x="1282" y="997" type="qcurve"/>
    </contour>
    <contour>
      <point x="872" y="926" type="qcurve"/>
      <point x="872" y="737"/>
      <point x="756" y="596" type="qcurve"/>
      <point x="633" y="449"/>
      <point x="446" y="449" type="qcurve"/>
      <point x="326" y="449"/>
      <point x="147" y="612"/>
      <point x="147" y="731" type="qcurve"/>
      <point x="147" y="846"/>
      <point x="193" y="928" type="qcurve"/>
      <point x="248" y="1030"/>
      <point x="354" y="1030" type="qcurve"/>
      <point x="385" y="1098"/>
      <point x="471" y="1135" type="qcurve"/>
      <point x="545" y="1167"/>
      <point x="629" y="1167" type="qcurve"/>
      <point x="741" y="1167"/>
      <point x="872" y="1038"/>
    </contour>
    <contour>
      <point x="1585" y="467" type="qcurve"/>
      <point x="1585" y="588"/>
      <point x="1444" y="588" type="qcurve"/>
      <point x="1413" y="588"/>
      <point x="1315" y="514"/>
      <point x="1303" y="514" type="qcurve"/>
      <point x="1288" y="514"/>
      <point x="1255" y="526" type="qcurve"/>
      <point x="1163" y="418"/>
      <point x="1163" y="291" type="qcurve"/>
      <point x="1163" y="215"/>
      <point x="1247" y="121"/>
      <point x="1323" y="121" type="qcurve"/>
      <point x="1432" y="121"/>
      <point x="1511" y="244" type="qcurve"/>
      <point x="1585" y="352"/>
    </contour>
    <contour>
      <point x="723" y="932" type="qcurve"/>
      <point x="723" y="1042"/>
      <point x="586" y="1042" type="qcurve"/>
      <point x="543" y="1042"/>
      <point x="465" y="971" type="qcurve"/>
      <point x="451" y="967" type="line"/>
      <point x="393" y="983" type="line"/>
      <point x="301" y="866"/>
      <point x="301" y="758" type="qcurve"/>
      <point x="301" y="678"/>
      <point x="387" y="571"/>
      <point x="465" y="571" type="qcurve"/>
      <point x="575" y="571"/>
      <point x="653" y="700" type="qcurve"/>
      <point x="723" y="813"/>
    </contour>
  </outline>
</glyph>
<glyph name="ampersand" format="2">
  <advance width="1147"/>
  <unicode hex="0026"/>
  <outline>
    <contour>
      <point x="1069" y="504" type="line"/>
      <point x="1069" y="467"/>
      <point x="1040" y="412" type="qcurve"/>
      <point x="1010" y="350"/>
      <point x="979" y="346" type="qcurve"/>
      <point x="969" y="344"/>
      <point x="924" y="344" type="qcurve"/>
      <point x="870" y="344"/>
      <point x="668" y="317" type="qcurve"/>
      <point x="731" y="301"/>
      <point x="795" y="287" type="qcurve"/>
      <point x="905" y="258"/>
      <point x="905" y="240" type="qcurve"/>
      <point x="905" y="223"/>
      <point x="858" y="172" type="qcurve"/>
      <point x="686" y="-18"/>
      <point x="338" y="-18" type="qcurve"/>
      <point x="264" y="-18"/>
      <point x="74" y="55"/>
      <point x="23" y="104" type="qcurve"/>
      <point x="-37" y="160"/>
      <point x="-37" y="268" type="qcurve"/>
      <point x="-37" y="293"/>
      <point x="-20" y="367" type="qcurve"/>
      <point x="27" y="569"/>
      <point x="324" y="655" type="qcurve"/>
      <point x="236" y="770"/>
      <point x="236" y="842" type="qcurve"/>
      <point x="236" y="973"/>
      <point x="379" y="1067" type="qcurve"/>
      <point x="508" y="1153"/>
      <point x="643" y="1153" type="qcurve"/>
      <point x="829" y="1153"/>
      <point x="924" y="1096" type="qcurve"/>
      <point x="1006" y="1047"/>
      <point x="1022" y="963"/>
      <point x="1022" y="928" type="qcurve"/>
      <point x="1022" y="887"/>
      <point x="995" y="872" type="qcurve"/>
      <point x="981" y="864"/>
      <point x="930" y="860" type="qcurve"/>
      <point x="848" y="850"/>
      <point x="815" y="850" type="qcurve"/>
      <point x="801" y="850"/>
      <point x="793" y="858"/>
      <point x="788" y="883" type="qcurve"/>
      <point x="776" y="977"/>
      <point x="647" y="977" type="qcurve"/>
      <point x="592" y="977"/>
      <point x="481" y="887"/>
      <point x="481" y="831" type="qcurve"/>
      <point x="481" y="756"/>
      <point x="612" y="713" type="qcurve"/>
      <point x="608" y="688"/>
      <point x="539" y="561"/>
      <point x="514" y="545"/>
      <point x="469" y="535" type="qcurve"/>
      <point x="215" y="475"/>
      <point x="215" y="299" type="qcurve"/>
      <point x="215" y="164"/>
      <point x="383" y="164" type="qcurve"/>
      <point x="571" y="164"/>
      <point x="690" y="354" type="qcurve"/>
      <point x="596" y="344"/>
      <point x="598" y="344" type="qcurve"/>
      <point x="580" y="344"/>
      <point x="569" y="346" type="qcurve"/>
      <point x="618" y="459"/>
      <point x="635" y="477" type="qcurve"/>
      <point x="674" y="518"/>
      <point x="770" y="518" type="qcurve"/>
      <point x="1040" y="518"/>
      <point x="1065" y="508" type="qcurve"/>
    </contour>
  </outline>
</glyph>
<glyph name="slash" format="2">
  <advance width="862"/>
  <unicode hex="002F"/>
  <outline>
    <contour>
      <point x="1022" y="1214" type="qcurve"/>
      <point x="1022" y="1206"/>
      <point x="995" y="1167" type="qcurve"/>
      <point x="924" y="1067"/>
      <point x="573" y="600" type="qcurve"/>
      <point x="295" y="229"/>
      <point x="164" y="23" type="qcurve"/>
      <point x="147" y="-10"/>
      <point x="113" y="-74" type="qcurve"/>
      <point x="72" y="-147"/>
      <point x="51" y="-147" type="qcurve"/>
      <point x="-45" y="-147"/>
      <point x="-80" y="-88" type="qcurve"/>
      <point x="-25" y="51"/>
      <point x="158" y="276" type="qcurve"/>
      <point x="442" y="627" type="line"/>
      <point x="489" y="702"/>
      <point x="621" y="897" type="qcurve"/>
      <point x="711" y="1030"/>
      <point x="860" y="1237" type="qcurve"/>
      <point x="883" y="1192" type="line"/>
      <point x="889" y="1303"/>
      <point x="928" y="1303" type="qcurve"/>
      <point x="961" y="1303"/>
      <point x="1022" y="1247"/>
    </contour>
  </outline>
</glyph>
<glyph name="zero" format="2">
  <advance width="1190"/>
  <unicode hex="0030"/>
  <outline>
    <contour>
      <point x="1106" y="768" type="qcurve"/>
      <point x="1106" y="715"/>
      <point x="1081" y="604" type="qcurve"/>
      <point x="1012" y="279"/>
      <point x="733" y="82" type="qcurve"/>
      <point x="608" y="-6"/>
      <point x="487" y="-6" type="qcurve"/>
      <point x="262" y="-6"/>
      <point x="168" y="111" type="qcurve"/>
      <point x="82" y="217"/>
      <point x="82" y="446" type="qcurve"/>
      <point x="82" y="465"/>
      <point x="94" y="530" type="qcurve"/>
      <point x="150" y="811"/>
      <point x="315" y="983" type="qcurve"/>
      <point x="498" y="1171"/>
      <point x="772" y="1171" type="qcurve"/>
      <point x="852" y="1171"/>
      <point x="930" y="1130" type="qcurve"/>
      <point x="1038" y="1073"/>
      <point x="1077" y="977" type="qcurve"/>
      <point x="1106" y="905"/>
    </contour>
    <contour>
      <point x="850" y="827" type="qcurve"/>
      <point x="850" y="889"/>
      <point x="776" y="971"/>
      <point x="717" y="971" type="qcurve"/>
      <point x="604" y="971"/>
      <point x="498" y="799" type="qcurve"/>
      <point x="416" y="670"/>
      <point x="377" y="524" type="qcurve"/>
      <point x="352" y="440"/>
      <point x="352" y="350" type="qcurve"/>
      <point x="352" y="215"/>
      <point x="489" y="215" type="qcurve"/>
      <point x="578" y="215"/>
      <point x="684" y="358" type="qcurve"/>
      <point x="774" y="481"/>
      <point x="807" y="588" type="qcurve"/>
      <point x="850" y="727"/>
    </contour>
  </outline>
</glyph>
<glyph name="two" format="2">
  <advance width="1104"/>
  <unicode hex="0032"/>
  <outline>
    <contour>
      <point x="1020" y="948" type="qcurve"/>
      <point x="1020" y="799"/>
      <point x="918" y="651" type="qcurve"/>
      <point x="842" y="541"/>
      <point x="688" y="408" type="qcurve"/>
      <point x="563" y="301"/>
      <point x="438" y="197" type="qcurve"/>
      <point x="571" y="190"/>
      <point x="633" y="190" type="qcurve"/>
      <point x="668" y="190"/>
      <point x="807" y="199"/>
      <point x="842" y="199" type="qcurve"/>
      <point x="879" y="199"/>
      <point x="879" y="180" type="qcurve"/>
      <point x="879" y="143"/>
      <point x="827" y="25"/>
      <point x="799" y="14" type="qcurve"/>
      <point x="745" y="-2"/>
      <point x="406" y="-2" type="qcurve"/>
      <point x="211" y="-2"/>
      <point x="170" y="8" type="qcurve"/>
      <point x="141" y="16"/>
      <point x="94" y="88" type="qcurve"/>
      <point x="74" y="119"/>
      <point x="51" y="170" type="qcurve"/>
      <point x="55" y="182"/>
      <point x="182" y="281" type="qcurve"/>
      <point x="258" y="340"/>
      <point x="334" y="399" type="qcurve"/>
      <point x="436" y="483"/>
      <point x="559" y="618" type="qcurve"/>
      <point x="719" y="795"/>
      <point x="719" y="864" type="qcurve"/>
      <point x="719" y="952"/>
      <point x="614" y="952" type="qcurve"/>
      <point x="518" y="952"/>
      <point x="426" y="842" type="qcurve"/>
      <point x="406" y="836"/>
      <point x="305" y="836" type="qcurve"/>
      <point x="168" y="836"/>
      <point x="168" y="862" type="qcurve"/>
      <point x="168" y="895"/>
      <point x="207" y="961" type="qcurve"/>
      <point x="326" y="1165"/>
      <point x="684" y="1165" type="qcurve"/>
      <point x="762" y="1165"/>
      <point x="1020" y="1085"/>
    </contour>
  </outline>
</glyph>
<glyph name="five" format="2">
  <advance width="1163"/>
  <unicode hex="0035"/>
  <outline>
    <contour>
      <point x="1108" y="1118" type="qcurve"/>
      <point x="1108" y="1085"/>
      <point x="1092" y="1020" type="qcurve"/>
      <point x="1075" y="944"/>
      <point x="1044" y="928"/>
      <point x="981" y="928" type="qcurve"/>
      <point x="934" y="928"/>
      <point x="748" y="934"/>
      <point x="700" y="934" type="qcurve"/>
      <point x="694" y="934"/>
      <point x="537" y="930" type="qcurve"/>
      <point x="496" y="823"/>
      <point x="442" y="666" type="qcurve"/>
      <point x="602" y="768"/>
      <point x="709" y="768" type="qcurve"/>
      <point x="831" y="768"/>
      <point x="1001" y="600"/>
      <point x="1001" y="477" type="qcurve"/>
      <point x="1001" y="408"/>
      <point x="989" y="344" type="qcurve"/>
      <point x="967" y="231"/>
      <point x="662" y="-4"/>
      <point x="541" y="-18" type="qcurve"/>
      <point x="463" y="-27"/>
      <point x="401" y="-27" type="qcurve"/>
      <point x="152" y="-27"/>
      <point x="76" y="113" type="qcurve"/>
      <point x="27" y="201"/>
      <point x="27" y="248" type="qcurve"/>
      <point x="27" y="311"/>
      <point x="195" y="311" type="qcurve"/>
      <point x="305" y="311"/>
      <point x="317" y="276" type="qcurve"/>
      <point x="350" y="190"/>
      <point x="467" y="190" type="qcurve"/>
      <point x="580" y="190"/>
      <point x="725" y="326"/>
      <point x="725" y="436" type="qcurve"/>
      <point x="725" y="506"/>
      <point x="653" y="551" type="qcurve"/>
      <point x="590" y="590"/>
      <point x="516" y="590" type="qcurve"/>
      <point x="451" y="590"/>
      <point x="344" y="539" type="qcurve"/>
      <point x="322" y="555"/>
      <point x="258" y="621" type="qcurve"/>
      <point x="188" y="692"/>
      <point x="188" y="707" type="qcurve"/>
      <point x="188" y="743"/>
      <point x="342" y="1130"/>
      <point x="342" y="1130" type="qcurve"/>
      <point x="371" y="1135"/>
      <point x="506" y="1135" type="qcurve"/>
      <point x="705" y="1135" type="line"/>
      <point x="1081" y="1135"/>
      <point x="1106" y="1128" type="qcurve"/>
      <point x="1108" y="1124"/>
    </contour>
  </outline>
</glyph>
<glyph name="six" format="2">
  <advance width="1133"/>
  <unicode hex="0036"/>
  <outline>
    <contour>
      <point x="1032" y="477" type="qcurve"/>
      <point x="1032" y="266"/>
      <point x="856" y="119" type="qcurve"/>
      <point x="688" y="-20"/>
      <point x="477" y="-20" type="qcurve"/>
      <point x="309" y="-20"/>
      <point x="203" y="59" type="qcurve"/>
      <point x="86" y="150"/>
      <point x="86" y="311" type="qcurve"/>
      <point x="86" y="481"/>
      <point x="176" y="637" type="qcurve"/>
      <point x="254" y="768"/>
      <point x="418" y="942" type="qcurve"/>
      <point x="616" y="1149"/>
      <point x="719" y="1149" type="qcurve"/>
      <point x="776" y="1149"/>
      <point x="860" y="1135" type="qcurve"/>
      <point x="971" y="1116"/>
      <point x="971" y="1085" type="qcurve"/>
      <point x="971" y="1077"/>
      <point x="952" y="1061" type="qcurve"/>
      <point x="842" y="967"/>
      <point x="623" y="778"/>
      <point x="524" y="666" type="qcurve"/>
      <point x="688" y="696"/>
      <point x="762" y="696" type="qcurve"/>
      <point x="868" y="696"/>
      <point x="946" y="641" type="qcurve"/>
      <point x="1032" y="578"/>
    </contour>
    <contour>
      <point x="752" y="420" type="qcurve"/>
      <point x="752" y="496"/>
      <point x="659" y="496" type="qcurve"/>
      <point x="678" y="496"/>
      <point x="598" y="489" type="qcurve"/>
      <point x="604" y="492" type="line"/>
      <point x="598" y="604"/>
      <point x="553" y="713" type="qcurve"/>
      <point x="383" y="459"/>
      <point x="383" y="299" type="qcurve"/>
      <point x="383" y="252"/>
      <point x="455" y="190"/>
      <point x="504" y="190" type="qcurve"/>
      <point x="590" y="190"/>
      <point x="752" y="334"/>
    </contour>
  </outline>
</glyph>
<glyph name="seven" format="2">
  <advance width="1073"/>
  <unicode hex="0037"/>
  <outline>
    <contour>
      <point x="1090" y="954" type="qcurve"/>
      <point x="1090" y="932"/>
      <point x="1032" y="872" type="qcurve"/>
      <point x="993" y="834"/>
      <point x="954" y="797" type="qcurve"/>
      <point x="764" y="592"/>
      <point x="508" y="252" type="qcurve"/>
      <point x="457" y="168"/>
      <point x="342" y="10" type="qcurve"/>
      <point x="307" y="-31"/>
      <point x="258" y="-31" type="qcurve"/>
      <point x="205" y="-31"/>
      <point x="131" y="-16" type="qcurve"/>
      <point x="33" y="4"/>
      <point x="33" y="33" type="qcurve"/>
      <point x="33" y="57"/>
      <point x="268" y="367" type="qcurve"/>
      <point x="475" y="639"/>
      <point x="551" y="727" type="qcurve"/>
      <point x="592" y="776"/>
      <point x="739" y="920" type="qcurve"/>
      <point x="645" y="920"/>
      <point x="440" y="909" type="qcurve"/>
      <point x="244" y="899"/>
      <point x="141" y="899" type="qcurve"/>
      <point x="106" y="899"/>
      <point x="106" y="909" type="qcurve"/>
      <point x="106" y="950"/>
      <point x="174" y="1114"/>
      <point x="207" y="1135"/>
      <point x="303" y="1137" type="qcurve"/>
      <point x="391" y="1139"/>
      <point x="426" y="1139" type="qcurve"/>
      <point x="948" y="1135" type="line"/>
      <point x="977" y="1135"/>
      <point x="1090" y="983"/>
    </contour>
  </outline>
</glyph>
<glyph name="eight" format="2">
  <advance width="1188"/>
  <unicode hex="0038"/>
  <outline>
    <contour>
      <point x="1165" y="1034" type="qcurve"/>
      <point x="1165" y="1016"/>
      <point x="1090" y="942" type="qcurve"/>
      <point x="1040" y="895"/>
      <point x="991" y="850" type="qcurve"/>
      <point x="1077" y="764"/>
      <point x="1077" y="698" type="qcurve"/>
      <point x="1077" y="639"/>
      <point x="805" y="545" type="qcurve"/>
      <point x="930" y="393"/>
      <point x="930" y="295" type="qcurve"/>
      <point x="930" y="119"/>
      <point x="752" y="39" type="qcurve"/>
      <point x="621" y="-20"/>
      <point x="420" y="-20" type="qcurve"/>
      <point x="291" y="-20"/>
      <point x="190" y="20" type="qcurve"/>
      <point x="51" y="74"/>
      <point x="51" y="182" type="qcurve"/>
      <point x="51" y="219"/>
      <point x="59" y="262" type="qcurve"/>
      <point x="78" y="377"/>
      <point x="420" y="565" type="qcurve"/>
      <point x="248" y="729"/>
      <point x="248" y="860" type="qcurve"/>
      <point x="248" y="1016"/>
      <point x="424" y="1092" type="qcurve"/>
      <point x="557" y="1151"/>
      <point x="735" y="1151" type="qcurve"/>
      <point x="848" y="1151"/>
      <point x="979" y="1128" type="qcurve"/>
      <point x="1165" y="1096"/>
    </contour>
    <contour>
      <point x="993" y="858" type="qcurve"/>
      <point x="803" y="973"/>
      <point x="668" y="973" type="qcurve"/>
      <point x="608" y="973"/>
      <point x="561" y="942" type="qcurve"/>
      <point x="508" y="905"/>
      <point x="508" y="848" type="qcurve"/>
      <point x="508" y="752"/>
      <point x="645" y="682" type="qcurve"/>
      <point x="842" y="793"/>
    </contour>
    <contour>
      <point x="662" y="289" type="qcurve"/>
      <point x="662" y="362"/>
      <point x="567" y="420" type="qcurve"/>
      <point x="504" y="395"/>
      <point x="442" y="354" type="qcurve"/>
      <point x="354" y="295"/>
      <point x="354" y="254" type="qcurve"/>
      <point x="354" y="209"/>
      <point x="432" y="156"/>
      <point x="481" y="156" type="qcurve"/>
      <point x="547" y="156"/>
      <point x="600" y="190" type="qcurve"/>
      <point x="662" y="229"/>
    </contour>
  </outline>
</glyph>
<glyph name="question" format="2">
  <advance width="1020"/>
  <unicode hex="003F"/>
  <outline>
    <contour>
      <point x="971" y="1020" type="qcurve"/>
      <point x="971" y="852"/>
      <point x="827" y="745" type="qcurve"/>
      <point x="662" y="623"/>
      <point x="502" y="389" type="qcurve"/>
      <point x="467" y="338"/>
      <point x="434" y="338" type="qcurve"/>
      <point x="373" y="338"/>
      <point x="373" y="381" type="qcurve"/>
      <point x="373" y="475"/>
      <point x="487" y="596" type="qcurve"/>
      <point x="559" y="668"/>
      <point x="700" y="811" type="qcurve"/>
      <point x="815" y="932"/>
      <point x="815" y="1022" type="qcurve"/>
      <point x="815" y="1077"/>
      <point x="750" y="1122" type="qcurve"/>
      <point x="692" y="1163"/>
      <point x="633" y="1163" type="qcurve"/>
      <point x="555" y="1163"/>
      <point x="496" y="1102" type="qcurve"/>
      <point x="469" y="1073"/>
      <point x="418" y="989" type="qcurve"/>
      <point x="381" y="928"/>
      <point x="352" y="928" type="qcurve"/>
      <point x="258" y="928"/>
      <point x="258" y="1014" type="qcurve"/>
      <point x="258" y="1053"/>
      <point x="307" y="1118" type="qcurve"/>
      <point x="428" y="1282"/>
      <point x="653" y="1282" type="qcurve"/>
      <point x="778" y="1282"/>
      <point x="868" y="1214" type="qcurve"/>
      <point x="971" y="1141"/>
    </contour>
    <contour>
      <point x="438" y="123" type="qcurve"/>
      <point x="438" y="70"/>
      <point x="375" y="-8"/>
      <point x="322" y="-8" type="qcurve"/>
      <point x="287" y="-8"/>
      <point x="225" y="39"/>
      <point x="225" y="74" type="qcurve"/>
      <point x="225" y="121"/>
      <point x="311" y="199"/>
      <point x="358" y="199" type="qcurve"/>
      <point x="438" y="199"/>
    </contour>
  </outline>
</glyph>
<glyph name="A" format="2">
  <advance width="920"/>
  <unicode hex="0041"/>
  <outline>
    <contour>
      <point x="784" y="627" type="qcurve"/>
      <point x="784" y="514"/>
      <point x="774" y="293" type="qcurve"/>
      <point x="774" y="281"/>
      <point x="770" y="236" type="qcurve"/>
      <point x="766" y="199"/>
      <point x="766" y="158"/>
      <point x="700" y="158" type="qcurve"/>
      <point x="629" y="158"/>
      <point x="625" y="160" type="qcurve"/>
      <point x="575" y="166"/>
      <point x="575" y="201" type="qcurve"/>
      <point x="575" y="213"/>
      <point x="602" y="322" type="qcurve"/>
      <point x="616" y="381"/>
      <point x="625" y="467" type="qcurve"/>
      <point x="575" y="389"/>
      <point x="537" y="389" type="qcurve"/>
      <point x="528" y="389"/>
      <point x="508" y="397"/>
      <point x="508" y="397" type="qcurve"/>
      <point x="500" y="389"/>
      <point x="471" y="365"/>
      <point x="416" y="365" type="qcurve"/>
      <point x="406" y="365"/>
      <point x="379" y="373" type="qcurve"/>
      <point x="360" y="348"/>
      <point x="303" y="246" type="qcurve"/>
      <point x="293" y="225"/>
      <point x="270" y="186" type="qcurve"/>
      <point x="252" y="162"/>
      <point x="236" y="162" type="qcurve"/>
      <point x="145" y="162"/>
      <point x="111" y="190" type="qcurve"/>
      <point x="74" y="205"/>
      <point x="74" y="215" type="qcurve"/>
      <point x="74" y="225"/>
      <point x="135" y="346"/>
      <point x="139" y="358" type="qcurve"/>
      <point x="98" y="362"/>
      <point x="98" y="369" type="qcurve"/>
      <point x="98" y="389"/>
      <point x="143" y="522"/>
      <point x="156" y="530" type="qcurve"/>
      <point x="162" y="537"/>
      <point x="250" y="537" type="qcurve"/>
      <point x="252" y="539"/>
      <point x="326" y="657" type="qcurve"/>
      <point x="377" y="737"/>
      <point x="426" y="817" type="qcurve"/>
      <point x="494" y="924"/>
      <point x="535" y="961" type="qcurve"/>
      <point x="553" y="977"/>
      <point x="578" y="977" type="qcurve"/>
      <point x="733" y="977"/>
      <point x="764" y="942" type="qcurve"/>
      <point x="776" y="928"/>
      <point x="782" y="797" type="qcurve"/>
      <point x="784" y="729"/>
    </contour>
    <contour>
      <point x="635" y="598" type="qcurve"/>
      <point x="635" y="629"/>
      <point x="627" y="758"/>
      <point x="627" y="791" type="qcurve"/>
      <point x="627" y="834"/>
      <point x="629" y="893" type="qcurve"/>
      <point x="598" y="836"/>
      <point x="528" y="725" type="qcurve"/>
      <point x="483" y="666"/>
      <point x="436" y="604" type="qcurve"/>
      <point x="387" y="535"/>
      <point x="362" y="473" type="qcurve"/>
      <point x="631" y="532" type="line"/>
      <point x="635" y="565"/>
    </contour>
  </outline>
</glyph>
<glyph name="G" format="2">
  <advance width="1032"/>
  <unicode hex="0047"/>
  <outline>
    <contour>
      <point x="987" y="573" type="qcurve"/>
      <point x="987" y="565"/>
      <point x="958" y="469"/>
      <point x="930" y="455" type="qcurve"/>
      <point x="909" y="446"/>
      <point x="856" y="446" type="qcurve"/>
      <point x="844" y="365"/>
      <point x="786" y="303" type="qcurve"/>
      <point x="733" y="250" type="line"/>
      <point x="645" y="158"/>
      <point x="467" y="158" type="qcurve"/>
      <point x="203" y="158"/>
      <point x="203" y="473" type="qcurve"/>
      <point x="203" y="547"/>
      <point x="307" y="774"/>
      <point x="354" y="829" type="qcurve"/>
      <point x="414" y="899"/>
      <point x="512" y="942" type="qcurve"/>
      <point x="600" y="979"/>
      <point x="659" y="979" type="qcurve"/>
      <point x="772" y="979"/>
      <point x="852" y="948" type="qcurve"/>
      <point x="967" y="905"/>
      <point x="967" y="809" type="qcurve"/>
      <point x="967" y="762"/>
      <point x="940" y="739"/>
      <point x="889" y="731" type="qcurve"/>
      <point x="795" y="717"/>
      <point x="748" y="717" type="qcurve"/>
      <point x="731" y="717"/>
      <point x="731" y="727" type="qcurve"/>
      <point x="731" y="733"/>
      <point x="735" y="764"/>
      <point x="735" y="772" type="qcurve"/>
      <point x="735" y="827"/>
      <point x="659" y="827" type="qcurve"/>
      <point x="547" y="827"/>
      <point x="469" y="682" type="qcurve"/>
      <point x="399" y="557"/>
      <point x="399" y="432" type="qcurve"/>
      <point x="399" y="389"/>
      <point x="453" y="315"/>
      <point x="496" y="315" type="qcurve"/>
      <point x="549" y="315"/>
      <point x="616" y="383"/>
      <point x="616" y="434" type="qcurve"/>
      <point x="561" y="422"/>
      <point x="520" y="422" type="qcurve"/>
      <point x="500" y="422"/>
      <point x="500" y="434" type="qcurve"/>
      <point x="500" y="442"/>
      <point x="526" y="543"/>
      <point x="530" y="549" type="qcurve"/>
      <point x="545" y="567"/>
      <point x="690" y="580" type="qcurve"/>
      <point x="795" y="588"/>
      <point x="870" y="588" type="qcurve"/>
      <point x="987" y="588"/>
    </contour>
  </outline>
</glyph>
<glyph name="H" format="2">
  <advance width="1073"/>
  <unicode hex="0048"/>
  <outline>
    <contour>
      <point x="1087" y="907" type="qcurve"/>
      <point x="1087" y="879"/>
      <point x="850" y="207"/>
      <point x="827" y="174" type="qcurve"/>
      <point x="819" y="160"/>
      <point x="754" y="160" type="qcurve"/>
      <point x="627" y="160"/>
      <point x="627" y="190" type="qcurve"/>
      <point x="627" y="215"/>
      <point x="709" y="426" type="qcurve"/>
      <point x="778" y="598"/>
      <point x="811" y="676" type="qcurve"/>
      <point x="750" y="616"/>
      <point x="639" y="489" type="qcurve"/>
      <point x="631" y="479"/>
      <point x="618" y="465" type="qcurve"/>
      <point x="612" y="461"/>
      <point x="463" y="455" type="qcurve"/>
      <point x="430" y="344"/>
      <point x="381" y="201" type="qcurve"/>
      <point x="360" y="162"/>
      <point x="330" y="162" type="qcurve"/>
      <point x="236" y="162"/>
      <point x="188" y="184" type="qcurve"/>
      <point x="176" y="190"/>
      <point x="176" y="205" type="qcurve"/>
      <point x="176" y="207"/>
      <point x="254" y="453" type="qcurve"/>
      <point x="188" y="459"/>
      <point x="188" y="483" type="qcurve"/>
      <point x="188" y="510"/>
      <point x="219" y="582" type="qcurve"/>
      <point x="236" y="623"/>
      <point x="258" y="633" type="qcurve"/>
      <point x="270" y="637"/>
      <point x="326" y="645" type="qcurve"/>
      <point x="375" y="829"/>
      <point x="432" y="928" type="qcurve"/>
      <point x="457" y="969"/>
      <point x="483" y="969" type="qcurve"/>
      <point x="639" y="969"/>
      <point x="639" y="920" type="qcurve"/>
      <point x="639" y="893"/>
      <point x="621" y="854" type="qcurve"/>
      <point x="590" y="782"/>
      <point x="528" y="633" type="qcurve"/>
      <point x="610" y="631"/>
      <point x="776" y="627" type="qcurve"/>
      <point x="803" y="702"/>
      <point x="858" y="852" type="qcurve"/>
      <point x="864" y="879"/>
      <point x="883" y="930" type="qcurve"/>
      <point x="901" y="965"/>
      <point x="924" y="965" type="qcurve"/>
      <point x="995" y="965"/>
      <point x="1057" y="942" type="qcurve"/>
      <point x="1087" y="930"/>
    </contour>
  </outline>
</glyph>
<glyph name="O" format="2">
  <advance width="1055"/>
  <unicode hex="004F"/>
  <outline>
    <contour>
      <point x="997" y="768" type="qcurve"/>
      <point x="997" y="436"/>
      <point x="776" y="254" type="qcurve"/>
      <point x="651" y="154"/>
      <point x="526" y="154" type="qcurve"/>
      <point x="481" y="154"/>
      <point x="416" y="162" type="qcurve"/>
      <point x="328" y="176"/>
      <point x="270" y="264" type="qcurve"/>
      <point x="217" y="346"/>
      <point x="217" y="440" type="qcurve"/>
      <point x="217" y="598"/>
      <point x="387" y="887"/>
      <point x="526" y="946" type="qcurve"/>
      <point x="627" y="989"/>
      <point x="692" y="989" type="qcurve"/>
      <point x="715" y="989"/>
      <point x="715" y="977"/>
      <point x="772" y="934"/>
      <point x="766" y="891" type="qcurve"/>
      <point x="897" y="979"/>
      <point x="913" y="979" type="qcurve"/>
      <point x="997" y="979"/>
    </contour>
    <contour>
      <point x="778" y="791" type="qcurve"/>
      <point x="778" y="825"/>
      <point x="743" y="887" type="qcurve"/>
      <point x="721" y="817"/>
      <point x="674" y="815" type="qcurve"/>
      <point x="625" y="793" type="line"/>
      <point x="541" y="750"/>
      <point x="434" y="547"/>
      <point x="434" y="446" type="qcurve"/>
      <point x="434" y="334"/>
      <point x="541" y="334" type="qcurve"/>
      <point x="592" y="334"/>
      <point x="655" y="403" type="qcurve"/>
      <point x="711" y="467"/>
      <point x="729" y="522" type="qcurve"/>
      <point x="770" y="641"/>
      <point x="770" y="737" type="qcurve"/>
      <point x="770" y="748"/>
      <point x="778" y="782"/>
    </contour>
  </outline>
</glyph>
<glyph name="R" format="2">
  <advance width="1001"/>
  <unicode hex="0052"/>
  <outline>
    <contour>
      <point x="969" y="731" type="qcurve"/>
      <point x="969" y="621"/>
      <point x="874" y="541" type="qcurve"/>
      <point x="819" y="494"/>
      <point x="682" y="428" type="qcurve"/>
      <point x="723" y="383"/>
      <point x="799" y="283" type="qcurve"/>
      <point x="889" y="160"/>
      <point x="889" y="139" type="qcurve"/>
      <point x="889" y="125"/>
      <point x="756" y="68"/>
      <point x="735" y="68" type="qcurve"/>
      <point x="735" y="70"/>
      <point x="731" y="70" type="qcurve"/>
      <point x="719" y="80"/>
      <point x="666" y="158" type="qcurve"/>
      <point x="598" y="250"/>
      <point x="467" y="438" type="qcurve"/>
      <point x="373" y="152" type="line"/>
      <point x="350" y="147"/>
      <point x="287" y="147" type="qcurve"/>
      <point x="178" y="147"/>
      <point x="178" y="182" type="qcurve"/>
      <point x="178" y="201"/>
      <point x="229" y="350" type="qcurve"/>
      <point x="379" y="784" type="line"/>
      <point x="262" y="762"/>
      <point x="258" y="762" type="qcurve"/>
      <point x="242" y="762"/>
      <point x="229" y="764" type="qcurve"/>
      <point x="229" y="788"/>
      <point x="270" y="897"/>
      <point x="305" y="928"/>
      <point x="440" y="946" type="qcurve"/>
      <point x="557" y="963"/>
      <point x="610" y="963" type="qcurve"/>
      <point x="743" y="963"/>
      <point x="842" y="913" type="qcurve"/>
      <point x="969" y="850"/>
    </contour>
    <contour>
      <point x="762" y="700" type="qcurve"/>
      <point x="762" y="813"/>
      <point x="559" y="813" type="qcurve"/>
      <point x="502" y="813"/>
      <point x="387" y="776" type="qcurve"/>
      <point x="408" y="762"/>
      <point x="451" y="739" type="qcurve"/>
      <point x="479" y="733"/>
      <point x="508" y="729" type="qcurve"/>
      <point x="551" y="719"/>
      <point x="551" y="702" type="qcurve"/>
      <point x="551" y="684"/>
      <point x="512" y="600"/>
      <point x="514" y="573" type="qcurve"/>
      <point x="514" y="547" type="line"/>
      <point x="598" y="547"/>
      <point x="672" y="584" type="qcurve"/>
      <point x="762" y="627"/>
    </contour>
  </outline>
</glyph>
<glyph name="V" format="2">
  <advance width="975"/>
  <unicode hex="0056"/>
  <outline>
    <contour>
      <point x="1020" y="928" type="qcurve"/>
      <point x="1020" y="854"/>
      <point x="555" y="154"/>
      <point x="506" y="154" type="qcurve"/>
      <point x="483" y="154"/>
      <point x="348" y="188"/>
      <point x="344" y="201" type="qcurve"/>
      <point x="342" y="227"/>
      <point x="340" y="270" type="qcurve"/>
      <point x="326" y="432"/>
      <point x="326" y="629" type="qcurve"/>
      <point x="326" y="942"/>
      <point x="336" y="969"/>
      <point x="354" y="969" type="qcurve"/>
      <point x="391" y="969"/>
      <point x="449" y="961" type="qcurve"/>
      <point x="522" y="950"/>
      <point x="541" y="922"/>
      <point x="541" y="877" type="qcurve"/>
      <point x="541" y="854"/>
      <point x="535" y="819" type="qcurve"/>
      <point x="528" y="774"/>
      <point x="528" y="762" type="qcurve"/>
      <point x="522" y="694"/>
      <point x="522" y="584" type="qcurve"/>
      <point x="522" y="573"/>
      <point x="512" y="528"/>
      <point x="512" y="516" type="qcurve"/>
      <point x="512" y="508"/>
      <point x="520" y="371" type="qcurve"/>
      <point x="610" y="541"/>
      <point x="786" y="883" type="qcurve"/>
      <point x="799" y="909"/>
      <point x="829" y="967"/>
      <point x="856" y="967" type="qcurve"/>
      <point x="885" y="967"/>
      <point x="946" y="956" type="qcurve"/>
      <point x="1020" y="942"/>
    </contour>
  </outline>
</glyph>
<glyph name="Z" format="2">
  <advance width="858"/>
  <unicode hex="005A"/>
  <outline>
    <contour>
      <point x="858" y="817" type="qcurve"/>
      <point x="858" y="801"/>
      <point x="836" y="776" type="qcurve"/>
      <point x="817" y="760"/>
      <point x="799" y="743" type="qcurve"/>
      <point x="686" y="625"/>
      <point x="571" y="506" type="qcurve"/>
      <point x="438" y="369"/>
      <point x="328" y="289" type="qcurve"/>
      <point x="444" y="299"/>
      <point x="645" y="299" type="qcurve"/>
      <point x="653" y="299"/>
      <point x="690" y="303"/>
      <point x="696" y="303" type="qcurve"/>
      <point x="696" y="283"/>
      <point x="684" y="248" type="qcurve"/>
      <point x="676" y="221"/>
      <point x="653" y="180" type="qcurve"/>
      <point x="639" y="170"/>
      <point x="483" y="170" type="qcurve"/>
      <point x="373" y="170" type="line"/>
      <point x="201" y="170"/>
      <point x="172" y="188"/>
      <point x="127" y="276"/>
      <point x="127" y="295" type="qcurve"/>
      <point x="127" y="311"/>
      <point x="186" y="369" type="qcurve"/>
      <point x="217" y="397"/>
      <point x="334" y="514"/>
      <point x="446" y="631" type="qcurve"/>
      <point x="547" y="733"/>
      <point x="686" y="846" type="qcurve"/>
      <point x="522" y="831"/>
      <point x="444" y="831" type="qcurve"/>
      <point x="283" y="831" type="line"/>
      <point x="283" y="854"/>
      <point x="309" y="920" type="qcurve"/>
      <point x="315" y="938"/>
      <point x="332" y="971" type="qcurve"/>
      <point x="342" y="985"/>
      <point x="553" y="985" type="qcurve"/>
      <point x="664" y="985" type="line"/>
      <point x="756" y="985"/>
      <point x="772" y="981" type="qcurve"/>
      <point x="811" y="967"/>
      <point x="858" y="842"/>
    </contour>
  </outline>
</glyph>
<glyph name="bracketleft" format="2">
  <advance width="885"/>
  <unicode hex="005B"/>
  <outline>
    <contour>
      <point x="1036" y="1333" type="line"/>
      <point x="991" y="1229" type="line"/>
      <point x="768" y="1229" type="line"/>
      <point x="258" y="-115" type="line"/>
      <point x="492" y="-115" type="line"/>
      <point x="457" y="-217" type="line"/>
      <point x="92" y="-217" type="line"/>
      <point x="676" y="1333" type="line"/>
    </contour>
  </outline>
</glyph>
<glyph name="grave" format="2">
  <advance width="766"/>
  <unicode hex="0060"/>
  <outline>
    <contour>
      <point x="705" y="905" type="line"/>
      <point x="694" y="879"/>
      <point x="651" y="893" type="qcurve"/>
      <point x="618" y="905"/>
      <point x="266" y="1171"/>
      <point x="254" y="1194" type="qcurve"/>
      <point x="264" y="1210"/>
      <point x="408" y="1257"/>
      <point x="424" y="1249" type="qcurve"/>
      <point x="467" y="1235"/>
      <point x="575" y="1100" type="qcurve"/>
      <point x="670" y="979"/>
      <point x="705" y="918" type="qcurve"/>
    </contour>
  </outline>
</glyph>
<glyph name="a" format="2">
  <advance width="850"/>
  <unicode hex="0061"/>
  <outline>
    <contour>
      <point x="735" y="618" type="qcurve"/>
      <point x="735" y="520"/>
      <point x="725" y="332" type="qcurve"/>
      <point x="725" y="322"/>
      <point x="721" y="283" type="qcurve"/>
      <point x="719" y="252"/>
      <point x="719" y="217"/>
      <point x="662" y="217" type="qcurve"/>
      <point x="600" y="217"/>
      <point x="596" y="217" type="qcurve"/>
      <point x="555" y="223"/>
      <point x="555" y="254" type="qcurve"/>
      <point x="555" y="264"/>
      <point x="578" y="356" type="qcurve"/>
      <point x="590" y="408"/>
      <point x="596" y="481" type="qcurve"/>
      <point x="555" y="414"/>
      <point x="520" y="414" type="qcurve"/>
      <point x="514" y="414"/>
      <point x="498" y="422"/>
      <point x="496" y="422" type="qcurve"/>
      <point x="489" y="414"/>
      <point x="465" y="393"/>
      <point x="418" y="393" type="qcurve"/>
      <point x="410" y="393"/>
      <point x="385" y="399" type="qcurve"/>
      <point x="371" y="379"/>
      <point x="322" y="291" type="qcurve"/>
      <point x="311" y="274"/>
      <point x="293" y="242" type="qcurve"/>
      <point x="276" y="221"/>
      <point x="264" y="221" type="qcurve"/>
      <point x="186" y="221"/>
      <point x="156" y="246" type="qcurve"/>
      <point x="123" y="256"/>
      <point x="123" y="266" type="qcurve"/>
      <point x="123" y="274"/>
      <point x="176" y="379"/>
      <point x="180" y="389" type="qcurve"/>
      <point x="145" y="391"/>
      <point x="145" y="397" type="qcurve"/>
      <point x="145" y="414"/>
      <point x="184" y="528"/>
      <point x="201" y="541"/>
      <point x="276" y="541" type="qcurve"/>
      <point x="276" y="543"/>
      <point x="342" y="645" type="qcurve"/>
      <point x="383" y="713"/>
      <point x="426" y="782" type="qcurve"/>
      <point x="485" y="874"/>
      <point x="520" y="905" type="qcurve"/>
      <point x="537" y="918"/>
      <point x="557" y="918" type="qcurve"/>
      <point x="690" y="918"/>
      <point x="717" y="889" type="qcurve"/>
      <point x="727" y="877"/>
      <point x="731" y="764" type="qcurve"/>
      <point x="735" y="707"/>
    </contour>
    <contour>
      <point x="606" y="594" type="qcurve"/>
      <point x="606" y="621"/>
      <point x="598" y="731"/>
      <point x="598" y="758" type="qcurve"/>
      <point x="598" y="795"/>
      <point x="600" y="848" type="qcurve"/>
      <point x="573" y="797"/>
      <point x="514" y="702" type="qcurve"/>
      <point x="475" y="651"/>
      <point x="436" y="600" type="qcurve"/>
      <point x="393" y="541"/>
      <point x="371" y="487" type="qcurve"/>
      <point x="602" y="537" type="line"/>
      <point x="606" y="565"/>
    </contour>
  </outline>
</glyph>
<glyph name="b" format="2">
  <advance width="956"/>
  <unicode hex="0062"/>
  <outline>
    <contour>
      <point x="936" y="741" type="qcurve"/>
      <point x="936" y="674"/>
      <point x="877" y="625" type="qcurve"/>
      <point x="844" y="598"/>
      <point x="758" y="557" type="qcurve"/>
      <point x="846" y="485"/>
      <point x="846" y="426" type="qcurve"/>
      <point x="846" y="295"/>
      <point x="641" y="238" type="qcurve"/>
      <point x="571" y="217"/>
      <point x="539" y="217" type="qcurve"/>
      <point x="426" y="217" type="line"/>
      <point x="387" y="217"/>
      <point x="360" y="231"/>
      <point x="274" y="319"/>
      <point x="272" y="330" type="qcurve"/>
      <point x="289" y="385"/>
      <point x="319" y="494" type="qcurve"/>
      <point x="334" y="545"/>
      <point x="412" y="748" type="qcurve"/>
      <point x="356" y="745"/>
      <point x="326" y="737" type="qcurve"/>
      <point x="317" y="733"/>
      <point x="299" y="729" type="qcurve"/>
      <point x="301" y="731" type="line"/>
      <point x="301" y="760"/>
      <point x="336" y="852"/>
      <point x="356" y="868" type="qcurve"/>
      <point x="389" y="893"/>
      <point x="489" y="909" type="qcurve"/>
      <point x="571" y="922"/>
      <point x="633" y="922" type="qcurve"/>
      <point x="737" y="922"/>
      <point x="825" y="883" type="qcurve"/>
      <point x="936" y="831"/>
    </contour>
    <contour>
      <point x="739" y="713" type="qcurve"/>
      <point x="739" y="788"/>
      <point x="600" y="788" type="qcurve"/>
      <point x="532" y="788"/>
      <point x="332" y="737" type="qcurve"/>
      <point x="393" y="733"/>
      <point x="455" y="729" type="qcurve"/>
      <point x="557" y="721"/>
      <point x="571" y="709" type="qcurve"/>
      <point x="573" y="702" type="line"/>
      <point x="573" y="696"/>
      <point x="535" y="602" type="qcurve"/>
      <point x="582" y="602" type="line"/>
      <point x="631" y="602"/>
      <point x="739" y="668"/>
    </contour>
    <contour>
      <point x="662" y="432" type="qcurve"/>
      <point x="662" y="459"/>
      <point x="637" y="471" type="qcurve"/>
      <point x="600" y="492"/>
      <point x="598" y="494" type="qcurve"/>
      <point x="596" y="512"/>
      <point x="590" y="551" type="qcurve"/>
      <point x="588" y="565"/>
      <point x="565" y="618" type="qcurve"/>
      <point x="526" y="563"/>
      <point x="512" y="522" type="qcurve"/>
      <point x="453" y="342" type="line"/>
      <point x="489" y="334"/>
      <point x="506" y="334" type="qcurve"/>
      <point x="606" y="334"/>
      <point x="643" y="387" type="qcurve"/>
      <point x="662" y="412"/>
    </contour>
  </outline>
</glyph>
<glyph name="f" format="2">
  <advance width="803"/>
  <unicode hex="0066"/>
  <outline>
    <contour>
      <point x="825" y="893" type="qcurve"/>
      <point x="825" y="889"/>
      <point x="807" y="834"/>
      <point x="786" y="776"/>
      <point x="762" y="776" type="qcurve"/>
      <point x="725" y="776"/>
      <point x="575" y="780"/>
      <point x="537" y="780" type="qcurve"/>
      <point x="479" y="780"/>
      <point x="414" y="776" type="qcurve"/>
      <point x="438" y="762"/>
      <point x="541" y="723"/>
      <point x="541" y="705" type="qcurve"/>
      <point x="541" y="676"/>
      <point x="516" y="618" type="qcurve"/>
      <point x="705" y="618" type="line"/>
      <point x="735" y="618"/>
      <point x="735" y="608" type="qcurve"/>
      <point x="735" y="575"/>
      <point x="723" y="535" type="qcurve"/>
      <point x="709" y="481"/>
      <point x="682" y="481" type="qcurve"/>
      <point x="463" y="483" type="line"/>
      <point x="444" y="418"/>
      <point x="424" y="354" type="qcurve"/>
      <point x="399" y="279"/>
      <point x="373" y="231" type="qcurve"/>
      <point x="369" y="223"/>
      <point x="350" y="223" type="qcurve"/>
      <point x="207" y="223"/>
      <point x="207" y="262" type="qcurve"/>
      <point x="207" y="268"/>
      <point x="240" y="360" type="qcurve"/>
      <point x="276" y="461"/>
      <point x="281" y="479" type="qcurve"/>
      <point x="258" y="481"/>
      <point x="227" y="494" type="qcurve"/>
      <point x="227" y="506"/>
      <point x="266" y="610"/>
      <point x="281" y="618"/>
      <point x="295" y="618" type="qcurve"/>
      <point x="340" y="623"/>
      <point x="346" y="645" type="qcurve"/>
      <point x="385" y="778" type="line"/>
      <point x="352" y="778"/>
      <point x="291" y="784" type="qcurve"/>
      <point x="293" y="797"/>
      <point x="326" y="868" type="qcurve"/>
      <point x="340" y="901"/>
      <point x="362" y="915"/>
      <point x="397" y="915" type="qcurve"/>
      <point x="616" y="915"/>
      <point x="780" y="905" type="qcurve"/>
      <point x="825" y="901"/>
    </contour>
  </outline>
</glyph>
<glyph name="h" format="2">
  <advance width="1012"/>
  <unicode hex="0068"/>
  <outline>
    <contour>
      <point x="1024" y="858" type="qcurve"/>
      <point x="1024" y="834"/>
      <point x="817" y="258"/>
      <point x="801" y="229" type="qcurve"/>
      <point x="793" y="217"/>
      <point x="737" y="217" type="qcurve"/>
      <point x="627" y="217"/>
      <point x="627" y="244" type="qcurve"/>
      <point x="627" y="297"/>
      <point x="786" y="659" type="qcurve"/>
      <point x="731" y="608"/>
      <point x="637" y="502" type="qcurve"/>
      <point x="631" y="492"/>
      <point x="621" y="479" type="qcurve"/>
      <point x="614" y="477"/>
      <point x="487" y="471" type="qcurve"/>
      <point x="459" y="377"/>
      <point x="418" y="252" type="qcurve"/>
      <point x="399" y="219"/>
      <point x="373" y="219" type="qcurve"/>
      <point x="291" y="219"/>
      <point x="252" y="240" type="qcurve"/>
      <point x="240" y="244"/>
      <point x="240" y="256" type="qcurve"/>
      <point x="240" y="258"/>
      <point x="309" y="469" type="qcurve"/>
      <point x="252" y="475"/>
      <point x="252" y="494" type="qcurve"/>
      <point x="252" y="518"/>
      <point x="279" y="580" type="qcurve"/>
      <point x="293" y="612"/>
      <point x="311" y="623" type="qcurve"/>
      <point x="322" y="627"/>
      <point x="371" y="633" type="qcurve"/>
      <point x="412" y="793"/>
      <point x="461" y="877" type="qcurve"/>
      <point x="481" y="911"/>
      <point x="504" y="911" type="qcurve"/>
      <point x="639" y="911"/>
      <point x="639" y="868" type="qcurve"/>
      <point x="639" y="846"/>
      <point x="623" y="811" type="qcurve"/>
      <point x="596" y="752"/>
      <point x="545" y="625" type="qcurve"/>
      <point x="612" y="621"/>
      <point x="756" y="618" type="qcurve"/>
      <point x="778" y="682"/>
      <point x="825" y="811" type="qcurve"/>
      <point x="831" y="834"/>
      <point x="848" y="877" type="qcurve"/>
      <point x="862" y="907"/>
      <point x="881" y="907" type="qcurve"/>
      <point x="944" y="907"/>
      <point x="997" y="889" type="qcurve"/>
      <point x="1024" y="879"/>
    </contour>
  </outline>
</glyph>
<glyph name="i" format="2">
  <advance width="668"/>
  <unicode hex="0069"/>
  <outline>
    <contour>
      <point x="641" y="881" type="qcurve"/>
      <point x="641" y="870"/>
      <point x="598" y="754" type="qcurve"/>
      <point x="578" y="705"/>
      <point x="541" y="604" type="qcurve"/>
      <point x="483" y="430"/>
      <point x="414" y="238" type="qcurve"/>
      <point x="403" y="223"/>
      <point x="379" y="223" type="qcurve"/>
      <point x="207" y="223"/>
      <point x="207" y="272" type="qcurve"/>
      <point x="207" y="297"/>
      <point x="424" y="879"/>
      <point x="442" y="901" type="qcurve"/>
      <point x="457" y="915"/>
      <point x="504" y="915" type="qcurve"/>
      <point x="641" y="915"/>
    </contour>
  </outline>
</glyph>
<glyph name="l" format="2">
  <advance width="723"/>
  <unicode hex="006C"/>
  <outline>
    <contour>
      <point x="635" y="367" type="qcurve"/>
      <point x="635" y="358"/>
      <point x="614" y="301" type="qcurve"/>
      <point x="596" y="252"/>
      <point x="592" y="246" type="qcurve"/>
      <point x="578" y="225"/>
      <point x="541" y="225" type="qcurve"/>
      <point x="465" y="225" type="line"/>
      <point x="330" y="225"/>
      <point x="276" y="229" type="qcurve"/>
      <point x="242" y="231"/>
      <point x="158" y="297"/>
      <point x="158" y="334" type="qcurve"/>
      <point x="158" y="383"/>
      <point x="182" y="457" type="qcurve"/>
      <point x="207" y="516"/>
      <point x="229" y="575" type="qcurve"/>
      <point x="270" y="692"/>
      <point x="360" y="920" type="qcurve"/>
      <point x="371" y="926"/>
      <point x="395" y="926" type="qcurve"/>
      <point x="541" y="926"/>
      <point x="541" y="893" type="qcurve"/>
      <point x="541" y="874"/>
      <point x="518" y="817" type="qcurve"/>
      <point x="446" y="643"/>
      <point x="356" y="373" type="qcurve"/>
      <point x="414" y="371"/>
      <point x="621" y="371" type="qcurve"/>
      <point x="635" y="371"/>
    </contour>
  </outline>
</glyph>
<glyph name="r" format="2">
  <advance width="940"/>
  <unicode hex="0072"/>
  <outline>
    <contour>
      <point x="913" y="700" type="qcurve"/>
      <point x="913" y="606"/>
      <point x="831" y="537" type="qcurve"/>
      <point x="784" y="498"/>
      <point x="668" y="440" type="qcurve"/>
      <point x="700" y="401"/>
      <point x="766" y="315" type="qcurve"/>
      <point x="844" y="211"/>
      <point x="844" y="193" type="qcurve"/>
      <point x="844" y="180"/>
      <point x="729" y="133"/>
      <point x="713" y="133" type="qcurve"/>
      <point x="711" y="133"/>
      <point x="709" y="133" type="qcurve"/>
      <point x="698" y="141"/>
      <point x="651" y="209" type="qcurve"/>
      <point x="594" y="287"/>
      <point x="481" y="449" type="qcurve"/>
      <point x="401" y="203" type="line"/>
      <point x="381" y="201"/>
      <point x="328" y="201" type="qcurve"/>
      <point x="233" y="201"/>
      <point x="233" y="229" type="qcurve"/>
      <point x="233" y="246"/>
      <point x="279" y="373" type="qcurve"/>
      <point x="406" y="745" type="line"/>
      <point x="305" y="727"/>
      <point x="303" y="727" type="qcurve"/>
      <point x="291" y="727"/>
      <point x="279" y="729" type="qcurve"/>
      <point x="279" y="750"/>
      <point x="313" y="842"/>
      <point x="344" y="870"/>
      <point x="459" y="885" type="qcurve"/>
      <point x="559" y="899"/>
      <point x="604" y="899" type="qcurve"/>
      <point x="719" y="899"/>
      <point x="803" y="856" type="qcurve"/>
      <point x="913" y="803"/>
    </contour>
    <contour>
      <point x="735" y="674" type="qcurve"/>
      <point x="735" y="772"/>
      <point x="561" y="772" type="qcurve"/>
      <point x="512" y="772"/>
      <point x="414" y="739" type="qcurve"/>
      <point x="432" y="725"/>
      <point x="469" y="707" type="qcurve"/>
      <point x="494" y="702"/>
      <point x="518" y="698" type="qcurve"/>
      <point x="555" y="690"/>
      <point x="555" y="676" type="qcurve"/>
      <point x="555" y="659"/>
      <point x="522" y="588"/>
      <point x="522" y="565" type="qcurve"/>
      <point x="522" y="543" type="line"/>
      <point x="594" y="543"/>
      <point x="657" y="573" type="qcurve"/>
      <point x="735" y="610"/>
    </contour>
  </outline>
</glyph>
<glyph name="v" format="2">
  <advance width="932"/>
  <unicode hex="0076"/>
  <outline>
    <contour>
      <point x="969" y="877" type="qcurve"/>
      <point x="969" y="811"/>
      <point x="573" y="211"/>
      <point x="528" y="211" type="qcurve"/>
      <point x="510" y="211"/>
      <point x="395" y="242"/>
      <point x="391" y="252" type="qcurve"/>
      <point x="389" y="274"/>
      <point x="387" y="311" type="qcurve"/>
      <point x="375" y="451"/>
      <point x="375" y="618" type="qcurve"/>
      <point x="375" y="887"/>
      <point x="385" y="911"/>
      <point x="399" y="911" type="qcurve"/>
      <point x="535" y="911"/>
      <point x="551" y="883" type="qcurve"/>
      <point x="559" y="870"/>
      <point x="559" y="831" type="qcurve"/>
      <point x="559" y="811"/>
      <point x="555" y="782" type="qcurve"/>
      <point x="549" y="745"/>
      <point x="549" y="733" type="qcurve"/>
      <point x="543" y="676"/>
      <point x="543" y="582" type="qcurve"/>
      <point x="543" y="571"/>
      <point x="537" y="532"/>
      <point x="537" y="522" type="qcurve"/>
      <point x="537" y="516"/>
      <point x="541" y="397" type="qcurve"/>
      <point x="621" y="543"/>
      <point x="770" y="838" type="qcurve"/>
      <point x="780" y="860"/>
      <point x="807" y="909"/>
      <point x="829" y="909" type="qcurve"/>
      <point x="856" y="909"/>
      <point x="907" y="899" type="qcurve"/>
      <point x="969" y="889"/>
    </contour>
  </outline>
</glyph>
<glyph name="bar" format="2">
  <advance width="930"/>
  <unicode hex="007C"/>
  <outline>
    <contour>
      <point x="569" y="-279" type="line"/>
      <point x="424" y="-279" type="line"/>
      <point x="424" y="1262" type="line"/>
      <point x="569" y="1262" type="line"/>
    </contour>
  </outline>
</glyph>
<glyph name="braceright" format="2">
  <advance width="995"/>
  <unicode hex="007D"/>
  <outline>
    <contour>
      <point x="776" y="592" type="qcurve"/>
      <point x="539" y="545"/>
      <point x="498" y="391" type="qcurve"/>
      <point x="487" y="344"/>
      <point x="489" y="158"/>
      <point x="477" y="113" type="qcurve"/>
      <point x="451" y="10"/>
      <point x="348" y="-86" type="qcurve"/>
      <point x="240" y="-186"/>
      <point x="137" y="-190" type="qcurve"/>
      <point x="289" y="-121"/>
      <point x="328" y="-45" type="qcurve"/>
      <point x="358" y="14"/>
      <point x="358" y="365"/>
      <point x="465" y="463" type="qcurve"/>
      <point x="553" y="543"/>
      <point x="739" y="592" type="qcurve"/>
      <point x="510" y="659"/>
      <point x="510" y="803" type="qcurve"/>
      <point x="510" y="893"/>
      <point x="655" y="1161"/>
      <point x="655" y="1214" type="qcurve"/>
      <point x="655" y="1296"/>
      <point x="553" y="1360" type="qcurve"/>
      <point x="631" y="1335"/>
      <point x="733" y="1214"/>
      <point x="733" y="1135" type="qcurve"/>
      <point x="733" y="1065"/>
      <point x="598" y="817"/>
      <point x="598" y="762" type="qcurve"/>
      <point x="598" y="637"/>
    </contour>
  </outline>
</glyph>
<glyph name="section" format="2">
  <advance width="1280"/>
  <unicode hex="00A7"/>
  <outline>
    <contour>
      <point x="1032" y="1343" type="qcurve"/>
      <point x="1032" y="1313"/>
      <point x="1026" y="1280" type="qcurve"/>
      <point x="895" y="1280" type="line"/>
      <point x="901" y="1309"/>
      <point x="901" y="1333" type="qcurve"/>
      <point x="901" y="1454"/>
      <point x="762" y="1454" type="qcurve"/>
      <point x="694" y="1454"/>
      <point x="575" y="1360"/>
      <point x="575" y="1294" type="qcurve"/>
      <point x="575" y="1219"/>
      <point x="688" y="1145" type="qcurve"/>
      <point x="760" y="1102"/>
      <point x="897" y="1008" type="qcurve"/>
      <point x="1008" y="926"/>
      <point x="1008" y="813" type="qcurve"/>
      <point x="1008" y="637"/>
      <point x="774" y="502" type="qcurve"/>
      <point x="827" y="426"/>
      <point x="827" y="354" type="qcurve"/>
      <point x="827" y="233"/>
      <point x="709" y="139" type="qcurve"/>
      <point x="598" y="53"/>
      <point x="473" y="53" type="qcurve"/>
      <point x="205" y="53"/>
      <point x="205" y="266" type="qcurve"/>
      <point x="205" y="307"/>
      <point x="213" y="354" type="qcurve"/>
      <point x="350" y="354" type="line"/>
      <point x="344" y="319"/>
      <point x="344" y="293" type="qcurve"/>
      <point x="344" y="170"/>
      <point x="475" y="170" type="qcurve"/>
      <point x="553" y="170"/>
      <point x="616" y="213" type="qcurve"/>
      <point x="688" y="260"/>
      <point x="688" y="334" type="qcurve"/>
      <point x="688" y="401"/>
      <point x="559" y="502" type="qcurve"/>
      <point x="463" y="567"/>
      <point x="367" y="633" type="qcurve"/>
      <point x="254" y="727"/>
      <point x="254" y="827" type="qcurve"/>
      <point x="254" y="1010"/>
      <point x="481" y="1133" type="qcurve"/>
      <point x="432" y="1198"/>
      <point x="432" y="1262" type="qcurve"/>
      <point x="432" y="1386"/>
      <point x="549" y="1483" type="qcurve"/>
      <point x="659" y="1573"/>
      <point x="788" y="1573" type="qcurve"/>
      <point x="899" y="1573"/>
      <point x="1032" y="1452"/>
    </contour>
    <contour>
      <point x="874" y="768" type="qcurve"/>
      <point x="874" y="846"/>
      <point x="797" y="899" type="qcurve"/>
      <point x="543" y="1075" type="line"/>
      <point x="389" y="999"/>
      <point x="389" y="866" type="qcurve"/>
      <point x="389" y="803"/>
      <point x="440" y="764" type="qcurve"/>
      <point x="711" y="563" type="line"/>
      <point x="874" y="641"/>
    </contour>
  </outline>
</glyph>
<glyph name="paragraph" format="2">
  <advance width="1104"/>
  <unicode hex="00B6"/>
  <outline>
    <contour>
      <point x="1057" y="1638" type="line"/>
      <point x="612" y="12" type="line"/>
      <point x="535" y="12" type="line"/>
      <point x="952" y="1548" type="line"/>
      <point x="756" y="1548" type="line"/>
      <point x="334" y="6" type="line"/>
      <point x="256" y="6" type="line"/>
      <point x="547" y="1073" type="line"/>
      <point x="453" y="1077"/>
      <point x="328" y="1192"/>
      <point x="328" y="1284" type="qcurve"/>
      <point x="328" y="1362"/>
      <point x="377" y="1446" type="qcurve"/>
      <point x="487" y="1634"/>
      <point x="696" y="1636" type="qcurve"/>
    </contour>
  </outline>
</glyph>
<glyph name="afii57929" format="2">
  <advance width="461"/>
  <unicode hex="02BC"/>
  <outline>
    <contour>
      <point x="348" y="1296" type="qcurve"/>
      <point x="348" y="1276"/>
      <point x="49" y="895"/>
      <point x="14" y="868" type="qcurve"/>
      <point x="-10" y="850"/>
      <point x="-41" y="850" type="qcurve"/>
      <point x="-86" y="850"/>
      <point x="-86" y="903" type="qcurve"/>
      <point x="-86" y="997"/>
      <point x="33" y="1223" type="qcurve"/>
      <point x="63" y="1282"/>
      <point x="119" y="1317"/>
      <point x="182" y="1317" type="qcurve"/>
      <point x="209" y="1317" type="line"/>
      <point x="348" y="1317"/>
    </contour>
  </outline>
</glyph>
<glyph name="macronlowmod" format="2">
  <advance width="1012"/>
  <unicode hex="02CD"/>
  <outline>
    <contour>
      <point x="807" y="213" type="qcurve"/>
      <point x="807" y="184"/>
      <point x="739" y="33"/>
      <point x="700" y="-6"/>
      <point x="-2" y="-6" type="qcurve"/>
      <point x="-39" y="-6"/>
      <point x="-39" y="16" type="qcurve"/>
      <point x="-39" y="33"/>
      <point x="-6" y="121" type="qcurve"/>
      <point x="4" y="150"/>
      <point x="37" y="193" type="qcurve"/>
      <point x="53" y="217"/>
      <point x="131" y="217" type="qcurve"/>
      <point x="182" y="217"/>
      <point x="358" y="217" type="qcurve"/>
      <point x="535" y="219"/>
      <point x="586" y="219" type="qcurve"/>
      <point x="629" y="219"/>
      <point x="696" y="217" type="qcurve"/>
      <point x="784" y="213"/>
    </contour>
  </outline>
</glyph>
<glyph name="endash" format="2">
  <advance width="922"/>
  <unicode hex="2013"/>
  <outline>
    <contour>
      <point x="934" y="375" type="line"/>
      <point x="-12" y="375" type="line"/>
      <point x="-12" y="561" type="line"/>
      <point x="934" y="561" type="line"/>
    </contour>
  </outline>
</glyph>
<glyph name="dblanglebracketright" format="2">
  <advance width="1100"/>
  <unicode hex="300B"/>
  <outline>
    <contour>
      <point x="167" y="-23" type="line"/>
      <point x="647" y="666" type="line"/>
      <point x="435" y="1356" type="line"/>
      <point x="396" y="1339"/>
      <point x="356" y="1322"/>
      <point x="316" y="1306" type="curve"/>
      <point x="378" y="1104"/>
      <point x="448" y="869"/>
      <point x="511" y="666" type="curve"/>
      <point x="68" y="28" type="line"/>
    </contour>
    <contour>
      <point x="448" y="-23" type="line"/>
      <point x="928" y="666" type="line"/>
      <point x="716" y="1356" type="line"/>
      <point x="677" y="1339"/>
      <point x="636" y="1322"/>
      <point x="597" y="1306" type="curve"/>
      <point x="659" y="1104"/>
      <point x="728" y="869"/>
      <point x="790" y="666" type="curve"/>
      <point x="644" y="453"/>
      <point x="496" y="241"/>
      <point x="349" y="28" type="curve"/>
    </contour>
  </outline>
</glyph>
<glyph name="uniA4D0" format="2">
  <advance width="1190"/>
  <unicode hex="A4D0"/>
  <outline>
    <contour>
      <point x="1157" y="856" type="qcurve"/>
      <point x="1157" y="745"/>
      <point x="1057" y="664" type="qcurve"/>
      <point x="1001" y="616"/>
      <point x="860" y="549" type="qcurve"/>
      <point x="1008" y="430"/>
      <point x="1008" y="332" type="qcurve"/>
      <point x="1008" y="111"/>
      <point x="668" y="14" type="qcurve"/>
      <point x="551" y="-18"/>
      <point x="494" y="-18" type="qcurve"/>
      <point x="307" y="-18" type="line"/>
      <point x="244" y="-18"/>
      <point x="197" y="6"/>
      <point x="53" y="152"/>
      <point x="51" y="172" type="qcurve"/>
      <point x="78" y="262"/>
      <point x="129" y="444" type="qcurve"/>
      <point x="154" y="526"/>
      <point x="283" y="866" type="qcurve"/>
      <point x="193" y="864"/>
      <point x="139" y="848" type="qcurve"/>
      <point x="125" y="844"/>
      <point x="94" y="838" type="qcurve"/>
      <point x="98" y="840" type="line"/>
      <point x="98" y="887"/>
      <point x="158" y="1040"/>
      <point x="190" y="1067" type="qcurve"/>
      <point x="244" y="1108"/>
      <point x="414" y="1135" type="qcurve"/>
      <point x="549" y="1157"/>
      <point x="653" y="1157" type="qcurve"/>
      <point x="678" y="1157"/>
      <point x="733" y="1149" type="qcurve"/>
      <point x="813" y="1137"/>
      <point x="870" y="1126" type="qcurve"/>
      <point x="981" y="1106"/>
      <point x="1063" y="1038" type="qcurve"/>
      <point x="1157" y="958"/>
    </contour>
    <contour>
      <point x="829" y="809" type="qcurve"/>
      <point x="829" y="936"/>
      <point x="598" y="936" type="qcurve"/>
      <point x="498" y="936"/>
      <point x="373" y="907" type="qcurve"/>
      <point x="260" y="879"/>
      <point x="150" y="850" type="qcurve"/>
      <point x="254" y="844"/>
      <point x="356" y="838" type="qcurve"/>
      <point x="524" y="823"/>
      <point x="551" y="801" type="qcurve"/>
      <point x="553" y="793" type="line"/>
      <point x="553" y="782"/>
      <point x="489" y="625" type="qcurve"/>
      <point x="567" y="625" type="line"/>
      <point x="649" y="625"/>
      <point x="733" y="676" type="qcurve"/>
      <point x="829" y="733"/>
    </contour>
    <contour>
      <point x="698" y="340" type="qcurve"/>
      <point x="698" y="385"/>
      <point x="659" y="406" type="qcurve"/>
      <point x="598" y="440"/>
      <point x="596" y="442" type="qcurve"/>
      <point x="590" y="475"/>
      <point x="580" y="539" type="qcurve"/>
      <point x="575" y="563"/>
      <point x="539" y="653" type="qcurve"/>
      <point x="475" y="559"/>
      <point x="453" y="489" type="qcurve"/>
      <point x="352" y="193" type="line"/>
      <point x="412" y="176"/>
      <point x="440" y="176" type="qcurve"/>
      <point x="606" y="176"/>
      <point x="670" y="264" type="qcurve"/>
      <point x="698" y="305"/>
    </contour>
  </outline>
</glyph>
<glyph name="uniA4D7" format="2">
  <advance width="1323"/>
  <unicode hex="A4D7"/>
  <outline>
    <contour>
      <point x="1354" y="1061" type="qcurve"/>
      <point x="1354" y="1030"/>
      <point x="1294" y="942" type="qcurve"/>
      <point x="1051" y="567"/>
      <point x="694" y="494" type="qcurve"/>
      <point x="711" y="459"/>
      <point x="803" y="336" type="qcurve"/>
      <point x="932" y="168"/>
      <point x="1047" y="-25" type="qcurve"/>
      <point x="1044" y="-39"/>
      <point x="997" y="-59" type="qcurve"/>
      <point x="936" y="-86"/>
      <point x="934" y="-88" type="qcurve"/>
      <point x="918" y="-92"/>
      <point x="829" y="-127"/>
      <point x="807" y="-127" type="qcurve"/>
      <point x="778" y="-127"/>
      <point x="557" y="225" type="qcurve"/>
      <point x="502" y="311"/>
      <point x="403" y="430" type="qcurve"/>
      <point x="403" y="293"/>
      <point x="379" y="201" type="qcurve"/>
      <point x="367" y="154"/>
      <point x="305" y="-12" type="qcurve"/>
      <point x="297" y="-12" type="line"/>
      <point x="238" y="-14"/>
      <point x="150" y="-4" type="qcurve"/>
      <point x="29" y="12"/>
      <point x="29" y="43" type="qcurve"/>
      <point x="29" y="88"/>
      <point x="106" y="299" type="qcurve"/>
      <point x="158" y="438"/>
      <point x="211" y="575" type="qcurve"/>
      <point x="221" y="608"/>
      <point x="299" y="854" type="qcurve"/>
      <point x="352" y="1022"/>
      <point x="401" y="1124" type="qcurve"/>
      <point x="414" y="1151"/>
      <point x="467" y="1151" type="qcurve"/>
      <point x="696" y="1151"/>
      <point x="696" y="1098" type="qcurve"/>
      <point x="696" y="1049"/>
      <point x="537" y="700" type="qcurve"/>
      <point x="618" y="686"/>
      <point x="623" y="686" type="qcurve"/>
      <point x="672" y="686"/>
      <point x="743" y="731" type="qcurve"/>
      <point x="973" y="879"/>
      <point x="1067" y="1073" type="qcurve"/>
      <point x="1075" y="1092"/>
      <point x="1096" y="1135"/>
      <point x="1114" y="1135" type="qcurve"/>
      <point x="1169" y="1135"/>
      <point x="1249" y="1118" type="qcurve"/>
      <point x="1354" y="1096"/>
    </contour>
  </outline>
</glyph>
<glyph name="uniA4DC" format="2">
  <advance width="1014"/>
  <unicode hex="A4DC"/>
  <outline>
    <contour>
      <point x="1016" y="920" type="qcurve"/>
      <point x="1016" y="895"/>
      <point x="983" y="862" type="qcurve"/>
      <point x="956" y="840"/>
      <point x="930" y="815" type="qcurve"/>
      <point x="764" y="647"/>
      <point x="436" y="309" type="qcurve"/>
      <point x="391" y="262"/>
      <point x="258" y="164" type="qcurve"/>
      <point x="422" y="180"/>
      <point x="709" y="180" type="qcurve"/>
      <point x="723" y="180"/>
      <point x="774" y="186"/>
      <point x="784" y="186" type="qcurve"/>
      <point x="782" y="158"/>
      <point x="764" y="106" type="qcurve"/>
      <point x="754" y="68"/>
      <point x="721" y="10" type="qcurve"/>
      <point x="702" y="-6"/>
      <point x="479" y="-6" type="qcurve"/>
      <point x="322" y="-6" type="line"/>
      <point x="76" y="-6"/>
      <point x="35" y="20"/>
      <point x="-29" y="147"/>
      <point x="-29" y="174" type="qcurve"/>
      <point x="-29" y="197"/>
      <point x="53" y="281" type="qcurve"/>
      <point x="98" y="322"/>
      <point x="184" y="403" type="qcurve"/>
      <point x="264" y="487"/>
      <point x="428" y="655" type="qcurve"/>
      <point x="569" y="801"/>
      <point x="770" y="961" type="qcurve"/>
      <point x="535" y="940"/>
      <point x="422" y="940" type="qcurve"/>
      <point x="193" y="942" type="line"/>
      <point x="193" y="971"/>
      <point x="231" y="1065" type="qcurve"/>
      <point x="240" y="1094"/>
      <point x="262" y="1141" type="qcurve"/>
      <point x="276" y="1161"/>
      <point x="580" y="1161" type="qcurve"/>
      <point x="735" y="1161" type="line"/>
      <point x="868" y="1161"/>
      <point x="891" y="1153" type="qcurve"/>
      <point x="946" y="1135"/>
      <point x="1016" y="956"/>
    </contour>
  </outline>
</glyph>
<glyph name="uniA4DD" format="2">
  <advance width="995"/>
  <unicode hex="A4DD"/>
  <outline>
    <contour>
      <point x="1032" y="1110" type="qcurve"/>
      <point x="1032" y="1102"/>
      <point x="1001" y="1010"/>
      <point x="989" y="967" type="qcurve"/>
      <point x="967" y="913"/>
      <point x="926" y="913" type="qcurve"/>
      <point x="864" y="913"/>
      <point x="614" y="922"/>
      <point x="551" y="922" type="qcurve"/>
      <point x="455" y="922"/>
      <point x="346" y="915" type="qcurve"/>
      <point x="387" y="891"/>
      <point x="473" y="854" type="qcurve"/>
      <point x="557" y="827"/>
      <point x="557" y="797" type="qcurve"/>
      <point x="557" y="748"/>
      <point x="516" y="651" type="qcurve"/>
      <point x="829" y="651" type="line"/>
      <point x="881" y="651"/>
      <point x="881" y="637" type="qcurve"/>
      <point x="881" y="580"/>
      <point x="862" y="512" type="qcurve"/>
      <point x="836" y="424"/>
      <point x="795" y="424" type="qcurve"/>
      <point x="428" y="426" type="line"/>
      <point x="395" y="319"/>
      <point x="365" y="211" type="qcurve"/>
      <point x="324" y="86"/>
      <point x="279" y="4" type="qcurve"/>
      <point x="270" y="-8"/>
      <point x="238" y="-8" type="qcurve"/>
      <point x="0" y="-8"/>
      <point x="0" y="57" type="qcurve"/>
      <point x="0" y="68"/>
      <point x="55" y="221" type="qcurve"/>
      <point x="115" y="389"/>
      <point x="123" y="420" type="qcurve"/>
      <point x="84" y="424"/>
      <point x="33" y="442" type="qcurve"/>
      <point x="33" y="463"/>
      <point x="100" y="637"/>
      <point x="113" y="647" type="qcurve"/>
      <point x="123" y="651"/>
      <point x="150" y="653" type="qcurve"/>
      <point x="221" y="659"/>
      <point x="231" y="694" type="qcurve"/>
      <point x="297" y="918" type="line"/>
      <point x="244" y="918"/>
      <point x="141" y="928" type="qcurve"/>
      <point x="143" y="948"/>
      <point x="197" y="1069" type="qcurve"/>
      <point x="221" y="1122"/>
      <point x="260" y="1145"/>
      <point x="319" y="1145" type="qcurve"/>
      <point x="684" y="1145"/>
      <point x="956" y="1128" type="qcurve"/>
      <point x="1032" y="1122"/>
    </contour>
  </outline>
</glyph>
<glyph name="uniA4DE" format="2">
  <advance width="1026"/>
  <unicode hex="A4DE"/>
  <outline>
    <contour>
      <point x="956" y="1079" type="qcurve"/>
      <point x="956" y="1069"/>
      <point x="901" y="913" type="qcurve"/>
      <point x="842" y="748"/>
      <point x="834" y="717" type="qcurve"/>
      <point x="872" y="713"/>
      <point x="924" y="694" type="qcurve"/>
      <point x="924" y="674"/>
      <point x="856" y="500"/>
      <point x="844" y="487" type="qcurve"/>
      <point x="834" y="485"/>
      <point x="807" y="483" type="qcurve"/>
      <point x="735" y="475"/>
      <point x="725" y="440" type="qcurve"/>
      <point x="659" y="219" type="line"/>
      <point x="713" y="219"/>
      <point x="815" y="209" type="qcurve"/>
      <point x="813" y="188"/>
      <point x="760" y="66" type="qcurve"/>
      <point x="735" y="14"/>
      <point x="696" y="-10"/>
      <point x="637" y="-10" type="qcurve"/>
      <point x="270" y="-10"/>
      <point x="0" y="8" type="qcurve"/>
      <point x="-76" y="12"/>
      <point x="-76" y="27" type="qcurve"/>
      <point x="-76" y="33"/>
      <point x="-59" y="82" type="qcurve"/>
      <point x="-45" y="125"/>
      <point x="-33" y="170" type="qcurve"/>
      <point x="-10" y="223"/>
      <point x="31" y="223" type="qcurve"/>
      <point x="92" y="223"/>
      <point x="342" y="213"/>
      <point x="406" y="213" type="qcurve"/>
      <point x="449" y="213"/>
      <point x="520" y="225" type="qcurve"/>
      <point x="610" y="240"/>
      <point x="637" y="242" type="qcurve"/>
      <point x="557" y="274"/>
      <point x="489" y="295" type="qcurve"/>
      <point x="399" y="319"/>
      <point x="399" y="340" type="qcurve"/>
      <point x="399" y="387"/>
      <point x="440" y="485" type="qcurve"/>
      <point x="127" y="485" type="line"/>
      <point x="76" y="485"/>
      <point x="76" y="500" type="qcurve"/>
      <point x="76" y="557"/>
      <point x="94" y="623" type="qcurve"/>
      <point x="121" y="713"/>
      <point x="162" y="713" type="qcurve"/>
      <point x="528" y="711" type="line"/>
      <point x="559" y="817"/>
      <point x="592" y="926" type="qcurve"/>
      <point x="635" y="1055"/>
      <point x="678" y="1130" type="qcurve"/>
      <point x="686" y="1145"/>
      <point x="719" y="1145" type="qcurve"/>
      <point x="956" y="1145"/>
    </contour>
  </outline>
</glyph>
<glyph name="uniA4DF" format="2">
  <advance width="1622"/>
  <unicode hex="A4DF"/>
  <outline>
    <contour>
      <point x="1544" y="1061" type="qcurve"/>
      <point x="1544" y="1038"/>
      <point x="1524" y="885" type="qcurve"/>
      <point x="1505" y="770"/>
      <point x="1473" y="541" type="qcurve"/>
      <point x="1456" y="381"/>
      <point x="1413" y="61" type="qcurve"/>
      <point x="1399" y="-14"/>
      <point x="1319" y="-14" type="qcurve"/>
      <point x="1143" y="-14"/>
      <point x="1106" y="4" type="qcurve"/>
      <point x="1092" y="12"/>
      <point x="1092" y="41" type="qcurve"/>
      <point x="1092" y="66"/>
      <point x="1122" y="225" type="qcurve"/>
      <point x="1139" y="299"/>
      <point x="1190" y="489" type="qcurve"/>
      <point x="1235" y="657"/>
      <point x="1251" y="754" type="qcurve"/>
      <point x="1190" y="678"/>
      <point x="1028" y="498" type="qcurve"/>
      <point x="907" y="365"/>
      <point x="819" y="233" type="qcurve"/>
      <point x="788" y="188"/>
      <point x="772" y="174" type="qcurve"/>
      <point x="745" y="156"/>
      <point x="700" y="156" type="qcurve"/>
      <point x="584" y="156"/>
      <point x="553" y="174" type="qcurve"/>
      <point x="504" y="203"/>
      <point x="504" y="305" type="qcurve"/>
      <point x="504" y="346"/>
      <point x="496" y="618" type="qcurve"/>
      <point x="489" y="856" type="line"/>
      <point x="444" y="729"/>
      <point x="381" y="512" type="qcurve"/>
      <point x="307" y="252"/>
      <point x="279" y="166" type="qcurve"/>
      <point x="236" y="31"/>
      <point x="197" y="-6"/>
      <point x="170" y="-6" type="qcurve"/>
      <point x="-35" y="-6"/>
      <point x="-35" y="45" type="qcurve"/>
      <point x="-35" y="127"/>
      <point x="340" y="1116"/>
      <point x="381" y="1137" type="qcurve"/>
      <point x="403" y="1147"/>
      <point x="455" y="1147" type="qcurve"/>
      <point x="483" y="1147"/>
      <point x="537" y="1141" type="qcurve"/>
      <point x="659" y="1124"/>
      <point x="702" y="1073"/>
      <point x="713" y="948" type="qcurve"/>
      <point x="715" y="928"/>
      <point x="725" y="877" type="qcurve"/>
      <point x="733" y="836"/>
      <point x="731" y="805" type="qcurve"/>
      <point x="727" y="647" type="line"/>
      <point x="727" y="643"/>
      <point x="729" y="545" type="qcurve"/>
      <point x="731" y="496"/>
      <point x="719" y="438" type="qcurve"/>
      <point x="829" y="623"/>
      <point x="961" y="778" type="qcurve"/>
      <point x="1006" y="831"/>
      <point x="1243" y="1092" type="qcurve"/>
      <point x="1286" y="1141"/>
      <point x="1327" y="1141" type="qcurve"/>
      <point x="1544" y="1141"/>
    </contour>
  </outline>
</glyph>
<glyph name="uniA4E2" format="2">
  <advance width="942"/>
  <unicode hex="A4E2"/>
  <outline>
    <contour>
      <point x="1020" y="1100" type="qcurve"/>
      <point x="1020" y="1055"/>
      <point x="989" y="952" type="qcurve"/>
      <point x="967" y="874"/>
      <point x="920" y="860" type="qcurve"/>
      <point x="907" y="858"/>
      <point x="791" y="858" type="qcurve"/>
      <point x="752" y="858"/>
      <point x="715" y="862" type="qcurve"/>
      <point x="733" y="918" type="line"/>
      <point x="645" y="918" type="line"/>
      <point x="594" y="918"/>
      <point x="553" y="893" type="qcurve"/>
      <point x="502" y="864"/>
      <point x="502" y="817" type="qcurve"/>
      <point x="502" y="782"/>
      <point x="518" y="750" type="qcurve"/>
      <point x="545" y="719"/>
      <point x="594" y="657" type="qcurve"/>
      <point x="741" y="471"/>
      <point x="741" y="350" type="qcurve"/>
      <point x="741" y="152"/>
      <point x="575" y="57" type="qcurve"/>
      <point x="444" y="-20"/>
      <point x="229" y="-20" type="qcurve"/>
      <point x="94" y="-20"/>
      <point x="8" y="-8" type="qcurve"/>
      <point x="-45" y="0"/>
      <point x="-70" y="31"/>
      <point x="-70" y="88" type="qcurve"/>
      <point x="-70" y="119"/>
      <point x="-18" y="297"/>
      <point x="12" y="334"/>
      <point x="59" y="334" type="qcurve"/>
      <point x="203" y="334"/>
      <point x="215" y="330" type="qcurve"/>
      <point x="211" y="297"/>
      <point x="190" y="229" type="qcurve"/>
      <point x="248" y="211"/>
      <point x="281" y="211" type="qcurve"/>
      <point x="442" y="211"/>
      <point x="442" y="317" type="qcurve"/>
      <point x="442" y="395"/>
      <point x="178" y="723"/>
      <point x="178" y="807" type="qcurve"/>
      <point x="178" y="926"/>
      <point x="328" y="1030" type="qcurve"/>
      <point x="457" y="1118"/>
      <point x="588" y="1139" type="qcurve"/>
      <point x="702" y="1155"/>
      <point x="877" y="1155" type="qcurve"/>
      <point x="1020" y="1155"/>
    </contour>
  </outline>
</glyph>
<glyph name="uniA4E3" format="2">
  <advance width="1186"/>
  <unicode hex="A4E3"/>
  <outline>
    <contour>
      <point x="1139" y="825" type="qcurve"/>
      <point x="1139" y="666"/>
      <point x="1004" y="551" type="qcurve"/>
      <point x="926" y="485"/>
      <point x="729" y="389" type="qcurve"/>
      <point x="786" y="326"/>
      <point x="895" y="182" type="qcurve"/>
      <point x="1024" y="8"/>
      <point x="1024" y="-23" type="qcurve"/>
      <point x="1024" y="-43"/>
      <point x="834" y="-123"/>
      <point x="805" y="-123" type="qcurve"/>
      <point x="803" y="-123"/>
      <point x="799" y="-121" type="qcurve"/>
      <point x="782" y="-106"/>
      <point x="705" y="4" type="qcurve"/>
      <point x="606" y="135"/>
      <point x="422" y="403" type="qcurve"/>
      <point x="287" y="-4" type="line"/>
      <point x="254" y="-10"/>
      <point x="164" y="-10" type="qcurve"/>
      <point x="8" y="-10"/>
      <point x="8" y="39" type="qcurve"/>
      <point x="8" y="78"/>
      <point x="37" y="160" type="qcurve"/>
      <point x="59" y="219"/>
      <point x="82" y="279" type="qcurve"/>
      <point x="295" y="899" type="line"/>
      <point x="127" y="868"/>
      <point x="123" y="868" type="qcurve"/>
      <point x="100" y="868"/>
      <point x="84" y="872" type="qcurve"/>
      <point x="84" y="907"/>
      <point x="139" y="1061"/>
      <point x="190" y="1106"/>
      <point x="383" y="1130" type="qcurve"/>
      <point x="551" y="1153"/>
      <point x="627" y="1153" type="qcurve"/>
      <point x="815" y="1153"/>
      <point x="956" y="1083" type="qcurve"/>
      <point x="1139" y="995"/>
    </contour>
    <contour>
      <point x="844" y="780" type="qcurve"/>
      <point x="844" y="942"/>
      <point x="553" y="942" type="qcurve"/>
      <point x="471" y="942"/>
      <point x="307" y="889" type="qcurve"/>
      <point x="336" y="866"/>
      <point x="397" y="834" type="qcurve"/>
      <point x="438" y="827"/>
      <point x="481" y="819" type="qcurve"/>
      <point x="541" y="807"/>
      <point x="541" y="782" type="qcurve"/>
      <point x="541" y="756"/>
      <point x="487" y="635"/>
      <point x="487" y="598" type="qcurve"/>
      <point x="489" y="561" type="line"/>
      <point x="608" y="561"/>
      <point x="715" y="612" type="qcurve"/>
      <point x="844" y="674"/>
    </contour>
  </outline>
</glyph>
<glyph name="uniA4E5" format="2">
  <advance width="1090"/>
  <unicode hex="A4E5"/>
  <outline>
    <contour>
      <point x="901" y="455" type="qcurve"/>
      <point x="901" y="4"/>
      <point x="885" y="-33"/>
      <point x="860" y="-33" type="qcurve"/>
      <point x="829" y="-33"/>
      <point x="725" y="-20" type="qcurve"/>
      <point x="637" y="-10"/>
      <point x="594" y="27"/>
      <point x="594" y="109" type="qcurve"/>
      <point x="594" y="137"/>
      <point x="602" y="186" type="qcurve"/>
      <point x="610" y="246"/>
      <point x="612" y="262" type="qcurve"/>
      <point x="621" y="358"/>
      <point x="621" y="516" type="qcurve"/>
      <point x="621" y="532"/>
      <point x="633" y="598"/>
      <point x="633" y="614" type="qcurve"/>
      <point x="633" y="627"/>
      <point x="625" y="823" type="qcurve"/>
      <point x="563" y="696"/>
      <point x="434" y="457" type="qcurve"/>
      <point x="301" y="211"/>
      <point x="242" y="90" type="qcurve"/>
      <point x="225" y="51"/>
      <point x="209" y="14" type="qcurve"/>
      <point x="182" y="-29"/>
      <point x="143" y="-29" type="qcurve"/>
      <point x="100" y="-29"/>
      <point x="14" y="-14" type="qcurve"/>
      <point x="-90" y="4"/>
      <point x="-90" y="25" type="qcurve"/>
      <point x="-90" y="133"/>
      <point x="571" y="1133"/>
      <point x="643" y="1133" type="qcurve"/>
      <point x="674" y="1133"/>
      <point x="868" y="1081"/>
      <point x="874" y="1065" type="qcurve"/>
      <point x="877" y="1028"/>
      <point x="881" y="967" type="qcurve"/>
      <point x="901" y="735"/>
    </contour>
  </outline>
</glyph>
<glyph name="uniA4E8" format="2">
  <advance width="1221"/>
  <unicode hex="A4E8"/>
  <outline>
    <contour>
      <point x="1157" y="705" type="qcurve"/>
      <point x="1157" y="600"/>
      <point x="1010" y="274"/>
      <point x="942" y="195" type="qcurve"/>
      <point x="856" y="96"/>
      <point x="715" y="35" type="qcurve"/>
      <point x="590" y="-18"/>
      <point x="504" y="-18" type="qcurve"/>
      <point x="344" y="-18"/>
      <point x="229" y="25" type="qcurve"/>
      <point x="66" y="88"/>
      <point x="66" y="225" type="qcurve"/>
      <point x="66" y="293"/>
      <point x="88" y="311" type="qcurve"/>
      <point x="102" y="324"/>
      <point x="176" y="336" type="qcurve"/>
      <point x="311" y="356"/>
      <point x="379" y="356" type="qcurve"/>
      <point x="401" y="356"/>
      <point x="401" y="344" type="qcurve"/>
      <point x="401" y="332"/>
      <point x="395" y="289"/>
      <point x="395" y="276" type="qcurve"/>
      <point x="395" y="199"/>
      <point x="506" y="199" type="qcurve"/>
      <point x="666" y="199"/>
      <point x="778" y="408" type="qcurve"/>
      <point x="874" y="586"/>
      <point x="874" y="762" type="qcurve"/>
      <point x="874" y="825"/>
      <point x="799" y="928"/>
      <point x="737" y="928" type="qcurve"/>
      <point x="655" y="928"/>
      <point x="545" y="850"/>
      <point x="545" y="780" type="qcurve"/>
      <point x="625" y="799"/>
      <point x="684" y="799" type="qcurve"/>
      <point x="713" y="799"/>
      <point x="713" y="780" type="qcurve"/>
      <point x="713" y="768"/>
      <point x="674" y="627"/>
      <point x="668" y="616" type="qcurve"/>
      <point x="649" y="590"/>
      <point x="438" y="573" type="qcurve"/>
      <point x="289" y="561"/>
      <point x="184" y="561" type="qcurve"/>
      <point x="14" y="561"/>
      <point x="14" y="582" type="qcurve"/>
      <point x="14" y="592"/>
      <point x="55" y="731"/>
      <point x="96" y="750" type="qcurve"/>
      <point x="127" y="764"/>
      <point x="203" y="764" type="qcurve"/>
      <point x="254" y="874"/>
      <point x="324" y="946" type="qcurve"/>
      <point x="399" y="1024" type="line"/>
      <point x="524" y="1155"/>
      <point x="780" y="1155" type="qcurve"/>
      <point x="977" y="1155"/>
      <point x="1073" y="1020" type="qcurve"/>
      <point x="1157" y="905"/>
    </contour>
  </outline>
</glyph>
<glyph name="uniA4EB" format="2">
  <advance width="1118"/>
  <unicode hex="A4EB"/>
  <outline>
    <contour>
      <point x="1110" y="1092" type="qcurve"/>
      <point x="1110" y="1069"/>
      <point x="928" y="823" type="qcurve"/>
      <point x="819" y="682"/>
      <point x="711" y="539" type="qcurve"/>
      <point x="766" y="381"/>
      <point x="889" y="170" type="qcurve"/>
      <point x="948" y="66"/>
      <point x="948" y="18" type="qcurve"/>
      <point x="948" y="-16"/>
      <point x="846" y="-16" type="qcurve"/>
      <point x="807" y="-16" type="line"/>
      <point x="709" y="-14"/>
      <point x="618" y="59"/>
      <point x="586" y="156" type="qcurve"/>
      <point x="555" y="244"/>
      <point x="500" y="371" type="qcurve"/>
      <point x="371" y="-14"/>
      <point x="231" y="-14" type="qcurve"/>
      <point x="170" y="-16" type="line"/>
      <point x="-4" y="-18"/>
      <point x="-4" y="29" type="qcurve"/>
      <point x="-4" y="43"/>
      <point x="174" y="279" type="qcurve"/>
      <point x="373" y="539"/>
      <point x="387" y="559" type="qcurve"/>
      <point x="346" y="670"/>
      <point x="311" y="748" type="qcurve"/>
      <point x="268" y="836"/>
      <point x="225" y="924" type="qcurve"/>
      <point x="172" y="1040"/>
      <point x="172" y="1106" type="qcurve"/>
      <point x="172" y="1135"/>
      <point x="203" y="1141" type="qcurve"/>
      <point x="211" y="1143"/>
      <point x="254" y="1143" type="qcurve"/>
      <point x="289" y="1143"/>
      <point x="367" y="1133" type="qcurve"/>
      <point x="455" y="1122"/>
      <point x="467" y="1114" type="qcurve"/>
      <point x="487" y="1100"/>
      <point x="573" y="768" type="qcurve"/>
      <point x="614" y="821"/>
      <point x="694" y="932" type="qcurve"/>
      <point x="721" y="979"/>
      <point x="778" y="1067" type="qcurve"/>
      <point x="831" y="1141"/>
      <point x="883" y="1141" type="qcurve"/>
      <point x="1110" y="1141"/>
    </contour>
  </outline>
</glyph>
<glyph name="uniA4ED" format="2">
  <advance width="1176"/>
  <unicode hex="A4ED"/>
  <outline>
    <contour>
      <point x="1223" y="850" type="qcurve"/>
      <point x="1223" y="805"/>
      <point x="1204" y="733" type="qcurve"/>
      <point x="1182" y="645"/>
      <point x="1151" y="645" type="qcurve"/>
      <point x="1153" y="649" type="line"/>
      <point x="1092" y="705"/>
      <point x="1010" y="741" type="qcurve"/>
      <point x="950" y="555"/>
      <point x="891" y="371" type="qcurve"/>
      <point x="791" y="74"/>
      <point x="764" y="49" type="qcurve"/>
      <point x="748" y="35"/>
      <point x="528" y="-33"/>
      <point x="500" y="-33" type="qcurve"/>
      <point x="485" y="-33"/>
      <point x="389" y="10" type="qcurve"/>
      <point x="348" y="27"/>
      <point x="272" y="63" type="qcurve"/>
      <point x="174" y="115"/>
      <point x="94" y="211" type="qcurve"/>
      <point x="0" y="319"/>
      <point x="0" y="416" type="qcurve"/>
      <point x="0" y="532"/>
      <point x="102" y="608" type="qcurve"/>
      <point x="186" y="670"/>
      <point x="315" y="694" type="qcurve"/>
      <point x="205" y="856"/>
      <point x="205" y="942" type="qcurve"/>
      <point x="205" y="1073"/>
      <point x="332" y="1149" type="qcurve"/>
      <point x="440" y="1212"/>
      <point x="582" y="1212" type="qcurve"/>
      <point x="698" y="1212"/>
      <point x="879" y="1141" type="qcurve"/>
      <point x="969" y="1104"/>
      <point x="1081" y="1020" type="qcurve"/>
      <point x="1223" y="918"/>
    </contour>
    <contour>
      <point x="995" y="756" type="qcurve"/>
      <point x="920" y="834"/>
      <point x="829" y="893" type="qcurve"/>
      <point x="717" y="969"/>
      <point x="637" y="969" type="qcurve"/>
      <point x="569" y="969"/>
      <point x="481" y="893"/>
      <point x="481" y="827" type="qcurve"/>
      <point x="481" y="748"/>
      <point x="610" y="647" type="qcurve"/>
      <point x="684" y="625" type="line"/>
      <point x="698" y="688"/>
      <point x="737" y="791" type="qcurve"/>
      <point x="825" y="791"/>
    </contour>
    <contour>
      <point x="651" y="551" type="qcurve"/>
      <point x="651" y="670" type="line"/>
      <point x="614" y="639"/>
      <point x="545" y="575" type="qcurve"/>
      <point x="524" y="551"/>
      <point x="477" y="504" type="qcurve"/>
      <point x="385" y="496"/>
      <point x="354" y="479" type="qcurve"/>
      <point x="297" y="453"/>
      <point x="297" y="375" type="qcurve"/>
      <point x="297" y="307"/>
      <point x="381" y="250" type="qcurve"/>
      <point x="449" y="203"/>
      <point x="524" y="190" type="qcurve"/>
      <point x="567" y="299"/>
      <point x="641" y="522" type="qcurve"/>
      <point x="643" y="530"/>
    </contour>
  </outline>
</glyph>
<glyph name="uniA4F0" format="2">
  <advance width="1065"/>
  <unicode hex="A4F0"/>
  <outline>
    <contour>
      <point x="1104" y="1116" type="qcurve"/>
      <point x="1104" y="1094"/>
      <point x="1049" y="930"/>
      <point x="1022" y="897"/>
      <point x="952" y="897" type="qcurve"/>
      <point x="885" y="897"/>
      <point x="614" y="909"/>
      <point x="547" y="909" type="qcurve"/>
      <point x="514" y="909"/>
      <point x="457" y="905" type="qcurve"/>
      <point x="389" y="899"/>
      <point x="367" y="899" type="qcurve"/>
      <point x="446" y="844"/>
      <point x="512" y="809" type="qcurve"/>
      <point x="526" y="805"/>
      <point x="551" y="791" type="qcurve"/>
      <point x="551" y="780"/>
      <point x="508" y="651" type="qcurve"/>
      <point x="541" y="651"/>
      <point x="805" y="651" type="qcurve"/>
      <point x="938" y="651"/>
      <point x="938" y="627" type="qcurve"/>
      <point x="938" y="612"/>
      <point x="907" y="524" type="qcurve"/>
      <point x="895" y="496"/>
      <point x="885" y="473" type="qcurve"/>
      <point x="868" y="436"/>
      <point x="842" y="424"/>
      <point x="795" y="424" type="qcurve"/>
      <point x="758" y="424"/>
      <point x="684" y="426" type="qcurve"/>
      <point x="610" y="426"/>
      <point x="573" y="426" type="qcurve"/>
      <point x="571" y="426"/>
      <point x="424" y="424" type="qcurve"/>
      <point x="397" y="348"/>
      <point x="336" y="201" type="qcurve"/>
      <point x="375" y="199"/>
      <point x="737" y="199" type="qcurve"/>
      <point x="805" y="199"/>
      <point x="805" y="174" type="qcurve"/>
      <point x="805" y="158"/>
      <point x="774" y="63" type="qcurve"/>
      <point x="758" y="16"/>
      <point x="717" y="-14"/>
      <point x="668" y="-14" type="qcurve"/>
      <point x="602" y="-14"/>
      <point x="471" y="-12" type="qcurve"/>
      <point x="338" y="-12"/>
      <point x="272" y="-12" type="qcurve"/>
      <point x="199" y="-12"/>
      <point x="170" y="-4" type="qcurve"/>
      <point x="129" y="8"/>
      <point x="35" y="92"/>
      <point x="35" y="152" type="qcurve"/>
      <point x="35" y="203"/>
      <point x="63" y="287" type="qcurve"/>
      <point x="88" y="354"/>
      <point x="113" y="422" type="qcurve"/>
      <point x="25" y="420"/>
      <point x="25" y="451" type="qcurve"/>
      <point x="25" y="461"/>
      <point x="41" y="522" type="qcurve"/>
      <point x="66" y="606"/>
      <point x="82" y="625" type="qcurve"/>
      <point x="109" y="655"/>
      <point x="188" y="647" type="qcurve"/>
      <point x="190" y="653"/>
      <point x="289" y="899" type="qcurve"/>
      <point x="236" y="899"/>
      <point x="154" y="913" type="qcurve"/>
      <point x="154" y="922"/>
      <point x="188" y="1034" type="qcurve"/>
      <point x="215" y="1114"/>
      <point x="264" y="1145"/>
      <point x="354" y="1145" type="qcurve"/>
      <point x="625" y="1145" type="line"/>
      <point x="690" y="1145"/>
      <point x="961" y="1141"/>
      <point x="1028" y="1141" type="qcurve"/>
      <point x="1104" y="1141"/>
    </contour>
  </outline>
</glyph>
<glyph name="uniA4F1" format="2">
  <advance width="1108"/>
  <unicode hex="A4F1"/>
  <outline>
    <contour>
      <point x="1012" y="686" type="qcurve"/>
      <point x="1012" y="678"/>
      <point x="995" y="616" type="qcurve"/>
      <point x="971" y="530"/>
      <point x="954" y="512" type="qcurve"/>
      <point x="928" y="483"/>
      <point x="848" y="489" type="qcurve"/>
      <point x="846" y="485"/>
      <point x="748" y="240" type="qcurve"/>
      <point x="801" y="238"/>
      <point x="883" y="223" type="qcurve"/>
      <point x="883" y="217"/>
      <point x="848" y="104" type="qcurve"/>
      <point x="821" y="25"/>
      <point x="772" y="-8"/>
      <point x="682" y="-8" type="qcurve"/>
      <point x="412" y="-8" type="line"/>
      <point x="346" y="-8"/>
      <point x="76" y="-4"/>
      <point x="8" y="-4" type="qcurve"/>
      <point x="-68" y="-4"/>
      <point x="-68" y="23" type="qcurve"/>
      <point x="-68" y="45"/>
      <point x="-12" y="207"/>
      <point x="14" y="240"/>
      <point x="84" y="240" type="qcurve"/>
      <point x="152" y="240"/>
      <point x="422" y="227"/>
      <point x="489" y="227" type="qcurve"/>
      <point x="563" y="227"/>
      <point x="725" y="250" type="qcurve"/>
      <point x="508" y="328"/>
      <point x="485" y="346" type="qcurve"/>
      <point x="485" y="356"/>
      <point x="528" y="485" type="qcurve"/>
      <point x="496" y="487"/>
      <point x="233" y="487" type="qcurve"/>
      <point x="98" y="487"/>
      <point x="98" y="512" type="qcurve"/>
      <point x="98" y="526"/>
      <point x="129" y="614" type="qcurve"/>
      <point x="141" y="643"/>
      <point x="152" y="664" type="qcurve"/>
      <point x="168" y="700"/>
      <point x="184" y="709" type="qcurve"/>
      <point x="195" y="713"/>
      <point x="242" y="713" type="qcurve"/>
      <point x="279" y="713"/>
      <point x="352" y="713" type="qcurve"/>
      <point x="426" y="711"/>
      <point x="463" y="711" type="qcurve"/>
      <point x="467" y="711"/>
      <point x="612" y="715" type="qcurve"/>
      <point x="639" y="788"/>
      <point x="700" y="938" type="qcurve"/>
      <point x="662" y="938"/>
      <point x="299" y="938" type="qcurve"/>
      <point x="231" y="938"/>
      <point x="231" y="963" type="qcurve"/>
      <point x="231" y="979"/>
      <point x="262" y="1073" type="qcurve"/>
      <point x="279" y="1122"/>
      <point x="319" y="1153"/>
      <point x="369" y="1153" type="qcurve"/>
      <point x="434" y="1153"/>
      <point x="698" y="1149"/>
      <point x="764" y="1149" type="qcurve"/>
      <point x="838" y="1149"/>
      <point x="866" y="1141" type="qcurve"/>
      <point x="907" y="1130"/>
      <point x="1001" y="1047"/>
      <point x="1001" y="987" type="qcurve"/>
      <point x="1001" y="934"/>
      <point x="973" y="850" type="qcurve"/>
      <point x="948" y="784"/>
      <point x="924" y="717" type="qcurve"/>
      <point x="1012" y="717"/>
    </contour>
  </outline>
</glyph>
<glyph name="uniA4F6" format="2">
  <advance width="985"/>
  <unicode hex="A4F6"/>
  <outline>
    <contour>
      <point x="930" y="965" type="qcurve"/>
      <point x="930" y="885"/>
      <point x="889" y="764" type="qcurve"/>
      <point x="862" y="696"/>
      <point x="811" y="561" type="qcurve"/>
      <point x="743" y="369"/>
      <point x="590" y="-12" type="qcurve"/>
      <point x="573" y="-20"/>
      <point x="532" y="-20" type="qcurve"/>
      <point x="475" y="-20"/>
      <point x="399" y="-10" type="qcurve"/>
      <point x="291" y="4"/>
      <point x="291" y="31" type="qcurve"/>
      <point x="291" y="63"/>
      <point x="330" y="160" type="qcurve"/>
      <point x="446" y="446"/>
      <point x="598" y="899" type="qcurve"/>
      <point x="502" y="903"/>
      <point x="158" y="903" type="qcurve"/>
      <point x="133" y="903"/>
      <point x="133" y="911" type="qcurve"/>
      <point x="133" y="922"/>
      <point x="168" y="1018" type="qcurve"/>
      <point x="199" y="1100"/>
      <point x="205" y="1110" type="qcurve"/>
      <point x="229" y="1145"/>
      <point x="293" y="1145" type="qcurve"/>
      <point x="418" y="1145" type="line"/>
      <point x="643" y="1145"/>
      <point x="731" y="1139" type="qcurve"/>
      <point x="791" y="1135"/>
      <point x="930" y="1024"/>
    </contour>
  </outline>
</glyph>
<glyph name="uniA4F8" format="2">
  <advance width="467"/>
  <unicode hex="A4F8"/>
  <outline>
    <contour>
      <point x="221" y="182" type="qcurve"/>
      <point x="221" y="-6"/>
      <point x="4" y="-6" type="qcurve"/>
      <point x="-70" y="-6"/>
      <point x="-82" y="37" type="qcurve"/>
      <point x="-86" y="53"/>
      <point x="-86" y="88" type="qcurve"/>
      <point x="-86" y="164"/>
      <point x="33" y="283"/>
      <point x="109" y="283" type="qcurve"/>
      <point x="221" y="283"/>
    </contour>
  </outline>
</glyph>
<glyph name="uniA4FB" format="2">
  <advance width="852"/>
  <unicode hex="A4FB"/>
  <outline>
    <contour>
      <point x="705" y="242" type="qcurve"/>
      <point x="705" y="221"/>
      <point x="416" y="-174"/>
      <point x="383" y="-205" type="qcurve"/>
      <point x="362" y="-223"/>
      <point x="334" y="-223" type="qcurve"/>
      <point x="295" y="-223"/>
      <point x="295" y="-170" type="qcurve"/>
      <point x="295" y="-121"/>
      <point x="410" y="166"/>
      <point x="471" y="252"/>
      <point x="528" y="260" type="qcurve"/>
      <point x="547" y="264"/>
      <point x="633" y="264" type="qcurve"/>
      <point x="705" y="264"/>
    </contour>
    <contour>
      <point x="217" y="182" type="qcurve"/>
      <point x="217" y="-6"/>
      <point x="37" y="-6" type="qcurve"/>
      <point x="-12" y="-6"/>
      <point x="-27" y="16" type="qcurve"/>
      <point x="-37" y="33"/>
      <point x="-37" y="88" type="qcurve"/>
      <point x="-37" y="158"/>
      <point x="57" y="283"/>
      <point x="125" y="283" type="qcurve"/>
      <point x="217" y="283"/>
    </contour>
  </outline>
</glyph>
<glyph name="uniA4FC" format="2">
  <advance width="549"/>
  <unicode hex="A4FC"/>
  <outline>
    <contour>
      <point x="412" y="623" type="qcurve"/>
      <point x="412" y="457"/>
      <point x="221" y="457" type="qcurve"/>
      <point x="172" y="457"/>
      <point x="145" y="487"/>
      <point x="145" y="535" type="qcurve"/>
      <point x="145" y="602"/>
      <point x="248" y="700"/>
      <point x="315" y="700" type="qcurve"/>
      <point x="350" y="700"/>
      <point x="412" y="657"/>
    </contour>
    <contour>
      <point x="266" y="221" type="qcurve"/>
      <point x="266" y="201"/>
      <point x="-18" y="-150"/>
      <point x="-51" y="-176" type="qcurve"/>
      <point x="-74" y="-195"/>
      <point x="-104" y="-195" type="qcurve"/>
      <point x="-147" y="-195"/>
      <point x="-147" y="-145" type="qcurve"/>
      <point x="-147" y="-98"/>
      <point x="-45" y="152"/>
      <point x="-14" y="193" type="qcurve"/>
      <point x="25" y="240"/>
      <point x="111" y="240" type="qcurve"/>
      <point x="156" y="240" type="line"/>
      <point x="266" y="240"/>
    </contour>
  </outline>
</glyph>
<glyph name="uniA4FE" format="2">
  <advance width="1071"/>
  <unicode hex="A4FE"/>
  <outline>
    <contour>
      <point x="836" y="684" type="qcurve"/>
      <point x="836" y="659"/>
      <point x="770" y="500"/>
      <point x="752" y="483" type="qcurve"/>
      <point x="725" y="459"/>
      <point x="96" y="459" type="qcurve"/>
      <point x="61" y="459"/>
      <point x="61" y="477" type="qcurve"/>
      <point x="61" y="492"/>
      <point x="92" y="565" type="qcurve"/>
      <point x="104" y="602"/>
      <point x="133" y="659" type="qcurve"/>
      <point x="158" y="688"/>
      <point x="625" y="688" type="qcurve"/>
      <point x="664" y="688"/>
      <point x="729" y="686" type="qcurve"/>
      <point x="815" y="684"/>
    </contour>
    <contour>
      <point x="864" y="162" type="qcurve"/>
      <point x="864" y="0"/>
      <point x="690" y="0" type="qcurve"/>
      <point x="643" y="0"/>
      <point x="618" y="33"/>
      <point x="618" y="80" type="qcurve"/>
      <point x="618" y="143"/>
      <point x="711" y="248"/>
      <point x="774" y="248" type="qcurve"/>
      <point x="864" y="248"/>
    </contour>
  </outline>
</glyph>
